<?xml version="1.0" encoding="UTF-8" standalone="no"?>
<!-- Generator: Adobe Illustrator 19.0.0, SVG Export Plug-In . SVG Version: 6.00 Build 0)  -->

<svg
   xmlns:dc="http://purl.org/dc/elements/1.1/"
   xmlns:cc="http://creativecommons.org/ns#"
   xmlns:rdf="http://www.w3.org/1999/02/22-rdf-syntax-ns#"
   xmlns:svg="http://www.w3.org/2000/svg"
   xmlns="http://www.w3.org/2000/svg"
   xmlns:sodipodi="http://sodipodi.sourceforge.net/DTD/sodipodi-0.dtd"
   xmlns:inkscape="http://www.inkscape.org/namespaces/inkscape"
   version="1.1"
   id="Layer_1"
   x="0px"
   y="0px"
   viewBox="0 0 512 512"
   style="enable-background:new 0 0 512 512;"
   xml:space="preserve"
   sodipodi:docname="311589_3.svg"
   inkscape:version="0.92.4 (5da689c313, 2019-01-14)"><metadata
   id="metadata3855"><rdf:RDF><cc:Work
       rdf:about=""><dc:format>image/svg+xml</dc:format><dc:type
         rdf:resource="http://purl.org/dc/dcmitype/StillImage" /><dc:title></dc:title></cc:Work></rdf:RDF></metadata><defs
   id="defs3853" /><sodipodi:namedview
   pagecolor="#ffffff"
   bordercolor="#666666"
   borderopacity="1"
   objecttolerance="10"
   gridtolerance="10"
   guidetolerance="10"
   inkscape:pageopacity="0"
   inkscape:pageshadow="2"
   inkscape:window-width="1705"
   inkscape:window-height="1506"
   id="namedview3851"
   showgrid="false"
   inkscape:zoom="1.7139053"
   inkscape:cx="185.10763"
   inkscape:cy="193.92346"
   inkscape:window-x="164"
   inkscape:window-y="249"
   inkscape:window-maximized="0"
   inkscape:current-layer="Layer_1" />
<path
   style="fill:#585661"
   d="m 99.434169,116.40144 c -21.869399,21.8694 -24.40225,54.79371 -5.656849,73.53911 l 79.19596,-79.19595 c -18.7454,-18.745405 -51.66971,-16.212554 -73.539111,5.65684 z"
   id="path3798"
   inkscape:connector-curvature="0" />
<path
   style="fill:#ffd750"
   d="m 337.94907,217.03052 c 0,0 81.06696,88.63867 15.9099,153.79573 -67.77901,67.77901 -153.79574,-15.9099 -153.79574,-15.9099 0,0 -0.84639,-30.25215 -7.4239,-48.87734 -5.70494,-16.15316 -26.39842,-34.41278 -32.546,-51.83164 -6.74015,-19.10038 9.77009,-38.79682 24.06001,-53.08676 14.73045,-14.73043 34.06699,-22.6953 54.95422,-24.21203 15.04157,-1.0932 29.63697,28.92844 45.14665,34.40569 18.62519,6.57751 53.69486,5.71625 53.69486,5.71625 z"
   id="path3800"
   inkscape:connector-curvature="0" />
<g
   id="g3806"
   transform="rotate(-45,226.57994,285.41933)">
	<path
   style="fill:#6b676e"
   d="m 333.456,293.973 c -5.435,-6.607 -10.646,-13.795 -13.694,-20.172 -2.916,-6.1 -2.79,-15.021 -2.423,-24.102 -16.198,2.637 -36.269,4.436 -61.154,4.436 -25.312,0 -45.647,-1.859 -61.988,-4.57 -1.36,9.872 -2.835,19.404 -6.196,26.436 -2.721,5.691 -6.693,11.806 -10.841,17.495 17.869,4.941 43.193,9.098 79.025,9.098 34.67,-10e-4 59.509,-3.893 77.271,-8.621 z"
   id="path3802"
   inkscape:connector-curvature="0" />
	<path
   style="fill:#6b676e"
   d="m 351.614,328 c -16.889,7.327 -45.882,15.902 -95.43,15.902 -49.542,0 -78.533,-8.573 -95.424,-15.899 2.192,20.579 5.612,36.143 15.239,51.997 16.705,5.65 44.248,10 80.184,10 35.943,0 64.111,-4.349 80.816,-10 1.062,-1.749 2.028,-3.495 2.932,-5.244 4.434,-10.566 7.457,-21.082 9.507,-30.249 0.87,-5.18 1.551,-10.634 2.176,-16.507 z"
   id="path3804"
   inkscape:connector-curvature="0" />
</g>
<path
   style="fill:#585661"
   d="m 223.75203,144.55278 c 20.3074,20.3074 27.04471,46.49439 -11.31371,84.85281 -38.35843,38.35842 -64.54541,31.62112 -84.85281,11.31372 -20.30811,-20.30812 -27.04473,-46.4944 11.31369,-84.85282 38.35844,-38.35842 64.54472,-31.62182 84.85283,-11.31371 z"
   id="path3808"
   inkscape:connector-curvature="0" />
<path
   style="fill:#6b676e"
   d="m 210.89117,129.12938 c 15.6207,15.62069 18.29992,38.2686 -21.08097,77.64951 -39.3809,39.3809 -62.02883,36.70166 -77.64952,21.08097 -15.621401,-15.6214 -18.299922,-38.26862 21.08096,-77.64951 39.38091,-39.38091 62.02813,-36.70238 77.64953,-21.08097 z"
   id="path3810"
   inkscape:connector-curvature="0" />
<g
   id="g3816"
   style="fill:#87e7ff;fill-opacity:1"
   transform="rotate(-45,226.57994,285.41933)">
	<path
   style="fill:#87e7ff;fill-opacity:1"
   d="m 464.188,259.811 c -127,-117.999 -152.375,-125.499 -152.375,-125.499 18.667,22 11.498,39.707 8.375,53.5 -16,70.665 14,113.999 32,127.999 38.517,29.957 152,67.001 152,40.001 0,-42.001 -16.69,-74.342 -40,-96.001 z"
   id="path3812"
   inkscape:connector-curvature="0" />
	<path
   style="fill:#87e7ff;fill-opacity:1"
   d="m 47.813,259.811 c 127,-117.999 152.375,-125.499 152.375,-125.499 -18.667,22 -11.498,39.707 -8.375,53.5 16,70.665 -14,113.999 -32,127.999 -38.517,29.957 -152,67.001 -152,40.001 0,-42.001 16.689,-74.342 40,-96.001 z"
   id="path3814"
   inkscape:connector-curvature="0" />
</g>
<path
   d="m 391.004,92.242439 c -1.63979,-0.716306 -3.5016,-0.876819 -5.28138,-0.395272 -3.054,-0.181734 -6.13062,-0.282843 -9.23623,-0.282843 -46.81047,0 -171.68058,13.927886 -195.23431,16.603566 -11.09238,-9.806856 -37.99554,-15.929644 -51.9114,-16.715945 -8.58583,-9.557851 -11.95099,-14.190424 -17.82314,-23.470342 -5.06659,-6.86819 -6.82387,-11.985523 -9.65008,-19.434176 -0.20302,-4.335816 -0.33233,-5.973163 -0.71646,-9.181446 -2.486646,-1.793673 -3.176662,-3.264692 -8.629325,-1.712696 -2.977251,4.439976 0.307586,11.516647 0.307586,11.516647 4.051931,6.050677 22.124999,32.594003 28.413499,45.472424 -10.11234,2.881457 -19.6505,8.287304 -27.598384,16.235184 -7.947881,7.94788 -13.353706,17.48603 -16.237998,27.59836 -7.101734,-5.46406 -36.843182,-31.47841 -43.615862,-38.21204 -4.080235,-2.956464 -9.759777,-6.275972 -14.198349,-4.123872 -4.439985,3.389821 -3.117699,5.338992 -0.981528,9.237812 l 9.679435,4.39034 c 7.537491,3.61165 14.396853,8.5019 20.392697,12.79399 5.566775,5.04703 19.688475,17.07615 28.00862,23.18655 0.786301,13.91586 4.433667,41.64417 14.240531,52.73655 -2.675692,23.55373 -16.604283,148.42455 -16.603586,195.2343 2e-6,3.10562 0.101125,6.18224 0.282854,9.23624 -0.48154,1.77978 -0.321036,3.64159 0.395271,5.28138 3.157224,33.35068 17.261884,63.30302 41.265339,87.30647 3.69039,3.69039 14.03041,10.51609 30.30872,-5.7608 l 0.004,-0.004 c 21.46423,-21.46423 49.8277,-79.6379 59.59073,-119.55336 21.28815,19.22056 47.80889,30.95006 75.40161,33.21138 30.54915,2.50104 58.22884,-6.97632 77.94015,-26.68761 19.71131,-19.71131 29.18865,-47.39101 26.68691,-77.93945 -2.25992,-27.59271 -13.99082,-54.11346 -33.21138,-75.40162 39.91475,-9.76373 98.09197,-38.12932 119.55689,-59.59425 16.27832,-16.27831 9.45262,-26.61833 5.76152,-30.30943 -24.00347,-24.00294 -53.9558,-38.107593 -87.30649,-41.26201 z M 211.17684,120.97218 c 38.92835,-4.18395 104.72534,-10.85692 145.55935,-12.83681 -17.07875,9.95819 -39.31727,23.25744 -57.9269,35.48756 -27.43857,-1.18087 -58.30307,-1.21409 -70.59047,-1.17097 -3.95485,-6.5372 -8.96611,-14.74599 -17.04198,-21.47978 z m -106.21875,1.21906 c 16.03647,-16.03647 40.68479,-18.31901 59.18837,-6.87238 -16.72095,9.76445 -35.5307,28.46955 -36.56095,29.4998 -1.03026,1.03026 -19.73606,19.84071 -29.500496,36.56025 -11.446645,-18.50358 -9.163408,-43.15119 6.873076,-59.18767 z m 2.85671,77.25424 c 0.20153,-0.56073 0.36558,-1.13914 0.43911,-1.75575 0.70145,-5.86333 13.45978,-24.37185 30.64529,-41.55736 17.18483,-17.18483 35.69477,-29.94315 41.5588,-30.6453 0.61589,-0.0743 1.19501,-0.2376 1.75575,-0.43912 18.63226,3.07732 25.95152,15.1625 32.45691,25.919 0.7962,1.31663 1.5627,2.58376 2.31577,3.77665 11.02521,17.47827 23.17755,30.99957 35.54202,41.35727 -4.60468,6.83206 -14.28144,19.07561 -34.43329,39.22745 -20.15183,20.15183 -32.39538,29.82859 -39.22744,34.43186 -10.3577,-12.36447 -23.879,-24.51681 -41.35726,-35.54201 -1.1936,-0.75236 -2.45932,-1.51886 -3.77595,-2.31507 -10.7558,-6.50468 -22.84309,-13.82464 -25.91971,-32.45762 z m 80.65614,83.12394 c 10.42063,-7.13683 24.3973,-19.38674 40.93794,-35.92738 16.54064,-16.54064 28.78986,-30.51661 35.92739,-40.93795 8.20879,5.4723 16.37163,9.67392 24.22831,12.83116 -2.82277,6.85045 -10.75651,23.96242 -37.52969,50.73561 -26.76753,26.76753 -43.8781,34.70268 -50.73067,37.52758 -3.15865,-7.85666 -7.36098,-16.02022 -12.83328,-24.22902 z m -84.7319,-54.15943 c 6.73378,8.07587 14.94258,13.08713 21.48049,17.04128 -0.0431,12.28738 -0.0106,43.15119 1.17026,70.58976 -12.23012,18.60964 -25.5301,40.84884 -35.48757,57.9269 1.9799,-40.83259 8.652869,-106.62959 12.83682,-145.55794 z m 31.52847,250.05841 c -4.51347,4.51346 -7.03147,5.44614 -7.80787,5.63565 -21.6905,-21.74424 -33.96163,-47.91709 -36.587821,-77.93943 4.922871,-8.73135 20.824291,-36.70308 37.265941,-63.11918 0.81458,8.46973 1.85191,15.3025 3.17208,19.263 3.30996,9.92989 20.93602,42.65692 38.04234,61.66536 -10.84489,22.91805 -23.52332,43.93468 -34.08467,54.4946 z m 57.91912,-125.33751 c -1.81302,14.50843 -8.189,34.5344 -16.60428,54.62542 -14.0785,-17.67483 -27.75818,-43.5012 -30.09305,-50.5058 -3.83747,-11.51382 -5.20006,-62.14903 -5.28138,-101.08446 45.90184,34.41984 54.55682,76.34421 51.97871,96.96484 z m 155.01619,12.30509 c -19.63282,19.63282 -48.90209,26.07808 -77.79871,20.17941 13.88687,-6.68853 33.04522,-18.8946 56.06154,-41.91094 23.02199,-23.02197 35.22736,-42.18245 41.91517,-56.07143 5.9001,28.89803 -0.54376,58.16872 -20.178,77.80296 z m 12.2287,-102.003 c -2.53992,9.42292 -10.23536,33.91356 -45.27958,68.95778 -35.03148,35.03148 -59.51505,42.73399 -68.94715,45.27746 -8.13668,-3.73989 -15.999,-8.51215 -23.34159,-14.29488 13.73625,-4.92004 39.11997,-17.02288 72.68421,-50.58712 33.57201,-33.57203 45.67203,-58.95857 50.59066,-72.69342 5.78059,7.34189 10.55357,15.20351 14.29345,23.34018 z m -27.09279,-35.85383 c -2.48478,8.61537 -10.04587,34.83277 -49.10574,73.89264 -39.05845,39.05847 -65.27728,46.62097 -73.89266,49.10574 -0.31112,0.0905 -0.60953,0.20223 -0.90085,0.32528 0.4575,-7.92738 -0.33163,-17.84667 -3.13814,-28.86411 6.8455,-2.75558 26.56954,-10.97641 57.04655,-41.45342 30.48266,-30.48266 38.69995,-50.21023 41.45555,-57.05008 11.01601,2.80508 20.93531,3.59564 28.86196,3.13885 -0.12373,0.29202 -0.23616,0.59254 -0.32667,0.9051 z m 2.55902,-17.15936 c -20.61994,2.5774 -62.54501,-6.07688 -96.96485,-51.97873 38.93401,0.0799 89.56781,1.44251 101.08375,5.28068 7.00529,2.33558 32.83167,16.01527 50.50581,30.09305 -20.09244,8.41528 -40.11913,14.79196 -54.62471,16.605 z m 125.33751,-57.91912 c -10.56206,10.56204 -31.57727,23.23906 -54.49743,34.08325 -19.00703,-17.10491 -51.73264,-34.73096 -61.66325,-38.04163 -3.9605,-1.32018 -10.79328,-2.35751 -19.26301,-3.1721 26.41681,-16.44094 54.38782,-32.34305 63.11919,-37.26593 30.02305,2.6269 56.1959,14.89803 77.94014,36.58853 -0.18951,0.77641 -1.12218,3.29441 -5.63564,7.80788 z"
   id="path3818"
   inkscape:connector-curvature="0"
   sodipodi:nodetypes="ccsccccccccscccccccccccscsccsccsccccccccscscsccscccccscccccsccscccccccccccccccccccscscscsccscccscccsccccccccccccccc" />
<g
   id="g3820">
</g>
<g
   id="g3822">
</g>
<g
   id="g3824">
</g>
<g
   id="g3826">
</g>
<g
   id="g3828">
</g>
<g
   id="g3830">
</g>
<g
   id="g3832">
</g>
<g
   id="g3834">
</g>
<g
   id="g3836">
</g>
<g
   id="g3838">
</g>
<g
   id="g3840">
</g>
<g
   id="g3842">
</g>
<g
   id="g3844">
</g>
<g
   id="g3846">
</g>
<g
   id="g3848">
</g>
</svg>