<?xml version="1.0" encoding="UTF-8" standalone="no"?>
<svg
   xmlns:dc="http://purl.org/dc/elements/1.1/"
   xmlns:cc="http://creativecommons.org/ns#"
   xmlns:rdf="http://www.w3.org/1999/02/22-rdf-syntax-ns#"
   xmlns:svg="http://www.w3.org/2000/svg"
   xmlns="http://www.w3.org/2000/svg"
   xmlns:sodipodi="http://sodipodi.sourceforge.net/DTD/sodipodi-0.dtd"
   xmlns:inkscape="http://www.inkscape.org/namespaces/inkscape"
   id="svg"
   version="1.1"
   width="400"
   height="400"
   viewBox="0 0 400 400"
   sodipodi:docname="feed_bee_icon.svg"
   inkscape:version="0.92.4 (5da689c313, 2019-01-14)"
   inkscape:export-filename="C:\Users\am\Downloads\feed_bee_icon.png"
   inkscape:export-xdpi="100"
   inkscape:export-ydpi="100">
  <metadata
     id="metadata13">
    <rdf:RDF>
      <cc:Work
         rdf:about="">
        <dc:format>image/svg+xml</dc:format>
        <dc:type
           rdf:resource="http://purl.org/dc/dcmitype/StillImage" />
        <dc:title></dc:title>
      </cc:Work>
    </rdf:RDF>
  </metadata>
  <defs
     id="defs11" />
  <sodipodi:namedview
     pagecolor="#ffffff"
     bordercolor="#666666"
     borderopacity="1"
     objecttolerance="10"
     gridtolerance="10"
     guidetolerance="10"
     inkscape:pageopacity="0"
     inkscape:pageshadow="2"
     inkscape:window-width="1083"
     inkscape:window-height="1020"
     id="namedview9"
     showgrid="false"
     inkscape:zoom="0.59"
     inkscape:cx="-170.33898"
     inkscape:cy="200"
     inkscape:window-x="1781"
     inkscape:window-y="761"
     inkscape:window-maximized="0"
     inkscape:current-layer="svg" />
  <g
     id="svgg">
    <path
       id="path0"
       d="M130.000 69.557 C 127.412 69.850,123.990 71.950,122.400 74.220 C 121.850 75.005,121.175 75.894,120.900 76.195 C 120.625 76.496,120.400 77.004,120.400 77.322 C 120.400 77.641,120.134 78.123,119.810 78.392 C 119.485 78.661,118.760 79.853,118.198 81.041 C 117.636 82.228,117.002 83.200,116.788 83.200 C 116.575 83.200,116.400 83.549,116.400 83.976 C 116.400 84.403,116.217 84.866,115.994 85.004 C 115.771 85.142,115.322 85.827,114.998 86.527 C 114.202 88.245,111.972 92.152,111.646 92.400 C 111.502 92.510,111.162 93.050,110.891 93.600 C 109.995 95.416,107.930 98.972,106.756 100.720 C 106.120 101.666,105.600 102.595,105.600 102.785 C 105.600 102.975,104.970 104.087,104.200 105.256 C 103.430 106.425,102.800 107.611,102.800 107.891 C 102.800 108.171,102.638 108.400,102.439 108.400 C 102.241 108.400,101.873 108.895,101.623 109.500 C 100.939 111.154,99.929 112.928,99.332 113.525 C 99.039 113.818,98.800 114.228,98.800 114.437 C 98.800 114.645,98.313 115.577,97.718 116.508 C 96.789 117.960,95.155 120.859,93.609 123.800 C 93.377 124.240,92.837 125.140,92.407 125.800 C 91.977 126.460,91.359 127.585,91.033 128.300 C 90.707 129.015,90.252 129.600,90.020 129.600 C 89.789 129.600,89.600 129.938,89.600 130.351 C 89.600 130.764,89.330 131.326,89.000 131.600 C 88.670 131.874,88.400 132.305,88.400 132.558 C 88.400 132.811,87.784 133.954,87.031 135.098 C 86.277 136.241,85.545 137.542,85.404 137.988 C 85.262 138.435,84.978 138.800,84.773 138.800 C 84.568 138.800,84.400 138.994,84.400 139.230 C 84.400 139.766,81.128 145.351,80.708 145.533 C 80.538 145.607,80.400 146.001,80.400 146.410 C 80.400 146.818,80.202 147.275,79.959 147.425 C 79.717 147.575,79.261 148.261,78.946 148.949 C 78.632 149.637,78.023 150.740,77.593 151.400 C 77.163 152.060,76.618 153.046,76.381 153.592 C 76.144 154.137,75.823 154.677,75.667 154.792 C 75.511 154.906,75.162 155.450,74.891 156.000 C 73.739 158.337,71.887 161.410,71.557 161.533 C 71.361 161.607,71.200 161.897,71.200 162.179 C 71.200 162.461,70.840 163.150,70.400 163.709 C 69.960 164.269,69.600 164.930,69.600 165.179 C 69.600 165.617,68.079 167.988,67.532 168.404 C 67.384 168.516,67.143 169.088,66.996 169.675 C 66.848 170.262,66.474 170.839,66.164 170.959 C 65.854 171.078,65.600 171.530,65.600 171.964 C 65.600 172.398,65.409 172.871,65.175 173.015 C 64.942 173.160,64.572 173.665,64.355 174.139 C 64.137 174.612,63.522 175.720,62.989 176.600 C 62.455 177.480,61.830 178.560,61.600 179.000 C 61.370 179.440,60.756 180.520,60.237 181.400 C 59.718 182.280,58.793 183.945,58.181 185.100 C 57.570 186.255,56.919 187.200,56.735 187.200 C 56.551 187.200,56.400 187.549,56.400 187.976 C 56.400 188.403,56.202 188.875,55.959 189.025 C 55.717 189.175,55.261 189.861,54.946 190.549 C 54.632 191.237,54.023 192.340,53.593 193.000 C 53.163 193.660,52.618 194.646,52.381 195.192 C 52.144 195.737,51.736 196.316,51.475 196.477 C 51.158 196.673,51.001 198.139,51.002 200.885 C 51.003 205.164,51.326 206.264,53.615 209.800 C 54.042 210.460,54.615 211.450,54.888 212.000 C 55.160 212.550,55.511 213.094,55.667 213.208 C 55.823 213.323,56.144 213.863,56.381 214.408 C 56.618 214.954,57.163 215.940,57.593 216.600 C 58.023 217.260,58.632 218.363,58.946 219.051 C 59.261 219.739,59.717 220.425,59.959 220.575 C 60.202 220.725,60.400 221.182,60.400 221.590 C 60.400 221.999,60.538 222.393,60.708 222.467 C 61.128 222.649,64.400 228.234,64.400 228.770 C 64.400 229.006,64.562 229.200,64.761 229.200 C 64.959 229.200,65.326 229.695,65.577 230.300 C 65.827 230.905,66.470 232.120,67.006 233.000 C 67.542 233.880,68.154 234.988,68.366 235.461 C 68.577 235.935,68.942 236.440,69.175 236.585 C 69.409 236.729,69.600 237.197,69.600 237.624 C 69.600 238.051,69.778 238.400,69.995 238.400 C 70.212 238.400,70.661 238.985,70.994 239.700 C 71.326 240.415,71.956 241.540,72.393 242.200 C 72.830 242.860,73.377 243.760,73.609 244.200 C 75.155 247.141,76.789 250.040,77.718 251.492 C 78.313 252.423,78.800 253.355,78.800 253.563 C 78.800 253.772,79.039 254.182,79.332 254.475 C 79.929 255.072,80.939 256.846,81.623 258.500 C 81.873 259.105,82.241 259.600,82.439 259.600 C 82.638 259.600,82.800 259.829,82.800 260.109 C 82.800 260.389,83.430 261.575,84.200 262.744 C 84.970 263.913,85.600 265.025,85.600 265.215 C 85.600 265.405,86.120 266.334,86.756 267.280 C 87.930 269.028,89.995 272.584,90.891 274.400 C 91.162 274.950,91.502 275.490,91.646 275.600 C 91.972 275.849,94.182 279.764,94.950 281.451 C 95.262 282.139,95.717 282.825,95.959 282.975 C 96.202 283.125,96.400 283.597,96.400 284.024 C 96.400 284.451,96.575 284.800,96.788 284.800 C 97.002 284.800,97.646 285.745,98.220 286.900 C 99.624 289.727,100.543 291.357,100.875 291.608 C 101.026 291.723,101.350 292.263,101.596 292.808 C 101.841 293.354,102.478 294.520,103.011 295.400 C 103.545 296.280,104.154 297.388,104.366 297.861 C 104.577 298.335,104.942 298.840,105.175 298.985 C 105.409 299.129,105.600 299.602,105.600 300.036 C 105.600 300.470,105.857 300.924,106.172 301.045 C 106.487 301.165,106.937 301.745,107.173 302.332 C 107.409 302.919,107.959 303.940,108.395 304.600 C 108.831 305.260,109.372 306.160,109.597 306.600 C 109.978 307.346,111.252 309.587,113.462 313.400 C 113.973 314.280,114.614 315.450,114.887 316.000 C 115.160 316.550,115.511 317.094,115.667 317.208 C 115.823 317.323,116.144 317.863,116.381 318.408 C 116.618 318.954,117.167 319.940,117.600 320.600 C 118.033 321.260,118.571 322.219,118.796 322.730 C 119.020 323.242,119.472 323.930,119.802 324.259 C 120.131 324.588,120.400 325.204,120.400 325.629 C 120.400 326.053,120.586 326.400,120.813 326.400 C 121.039 326.400,121.335 326.715,121.469 327.100 C 121.771 327.968,125.229 331.600,125.753 331.600 C 125.964 331.600,126.437 331.871,126.803 332.203 C 128.209 333.475,133.656 333.575,201.400 333.575 C 269.054 333.575,274.583 333.474,275.849 332.208 C 276.183 331.874,276.586 331.600,276.745 331.600 C 277.682 331.600,282.400 326.263,282.400 325.202 C 282.400 325.003,282.920 324.066,283.556 323.120 C 285.049 320.898,287.084 317.302,287.641 315.900 C 287.881 315.295,288.229 314.800,288.412 314.800 C 288.596 314.800,288.871 314.395,289.023 313.900 C 289.176 313.405,289.781 312.280,290.369 311.400 C 290.957 310.520,291.553 309.499,291.695 309.130 C 291.836 308.762,292.449 307.682,293.057 306.730 C 294.110 305.080,295.769 302.153,296.871 300.000 C 297.153 299.450,297.612 298.856,297.892 298.680 C 298.171 298.504,298.400 298.045,298.400 297.660 C 298.400 297.275,298.601 296.759,298.846 296.514 C 299.306 296.054,299.889 295.091,300.975 293.000 C 301.318 292.340,301.957 291.260,302.395 290.600 C 302.833 289.940,303.312 289.130,303.459 288.800 C 304.050 287.473,307.005 282.591,307.292 282.467 C 307.462 282.393,307.600 281.999,307.600 281.590 C 307.600 281.182,307.798 280.725,308.041 280.575 C 308.283 280.425,308.739 279.739,309.054 279.051 C 309.368 278.363,309.971 277.260,310.393 276.600 C 311.596 274.722,312.319 273.499,312.998 272.200 C 313.343 271.540,313.977 270.460,314.407 269.800 C 314.837 269.140,315.382 268.154,315.619 267.608 C 315.856 267.063,316.177 266.523,316.333 266.408 C 316.489 266.294,316.838 265.750,317.109 265.200 C 317.974 263.446,320.082 259.807,320.354 259.600 C 320.498 259.490,320.836 258.950,321.105 258.400 C 321.374 257.850,321.763 257.130,321.968 256.800 C 322.174 256.470,322.447 255.930,322.576 255.600 C 322.704 255.270,323.167 254.460,323.605 253.800 C 324.043 253.140,324.677 252.060,325.014 251.400 C 325.350 250.740,325.974 249.660,326.400 249.000 C 326.826 248.340,327.450 247.260,327.787 246.600 C 328.989 244.246,330.424 241.837,331.007 241.192 C 331.333 240.832,331.600 240.264,331.600 239.930 C 331.600 239.597,331.960 238.998,332.400 238.600 C 332.840 238.202,333.200 237.661,333.200 237.398 C 333.200 237.135,333.740 236.175,334.400 235.263 C 335.060 234.352,335.600 233.346,335.600 233.027 C 335.600 232.708,335.798 232.325,336.041 232.175 C 336.283 232.025,336.739 231.339,337.054 230.651 C 337.368 229.963,337.977 228.860,338.407 228.200 C 338.837 227.540,339.375 226.640,339.604 226.200 C 339.832 225.760,340.455 224.680,340.989 223.800 C 341.522 222.920,342.159 221.754,342.404 221.208 C 342.650 220.663,342.977 220.123,343.133 220.008 C 343.289 219.894,343.634 219.350,343.901 218.800 C 344.168 218.250,345.020 216.720,345.795 215.400 C 346.570 214.080,347.401 212.505,347.641 211.900 C 347.882 211.295,348.223 210.800,348.400 210.800 C 348.577 210.800,348.920 210.305,349.163 209.700 C 349.405 209.095,350.067 207.790,350.633 206.800 C 352.834 202.949,351.613 195.410,348.167 191.569 C 347.855 191.221,347.600 190.651,347.600 190.302 C 347.600 189.952,347.462 189.607,347.292 189.533 C 347.005 189.409,344.050 184.527,343.459 183.200 C 343.312 182.870,342.836 182.060,342.402 181.400 C 341.967 180.740,341.423 179.767,341.192 179.237 C 340.961 178.708,340.238 177.484,339.586 176.517 C 338.934 175.551,338.400 174.508,338.400 174.200 C 338.400 173.892,338.173 173.496,337.896 173.320 C 337.619 173.144,336.884 172.010,336.264 170.800 C 335.644 169.590,334.792 168.060,334.370 167.400 C 333.948 166.740,333.404 165.705,333.162 165.100 C 332.920 164.495,332.571 164.000,332.388 164.000 C 332.204 164.000,331.934 163.623,331.788 163.162 C 331.642 162.702,331.022 161.577,330.411 160.662 C 329.800 159.748,329.176 158.595,329.023 158.100 C 328.871 157.605,328.596 157.200,328.412 157.200 C 328.229 157.200,327.882 156.705,327.641 156.100 C 327.401 155.495,326.570 153.920,325.795 152.600 C 325.020 151.280,324.168 149.750,323.901 149.200 C 323.634 148.650,323.305 148.110,323.170 148.000 C 322.937 147.811,322.279 146.652,321.128 144.400 C 320.846 143.850,320.489 143.306,320.333 143.192 C 320.177 143.077,319.856 142.537,319.619 141.992 C 319.382 141.446,318.837 140.460,318.407 139.800 C 317.977 139.140,317.350 138.060,317.014 137.400 C 316.677 136.740,316.048 135.660,315.615 135.000 C 315.182 134.340,314.368 132.873,313.805 131.741 C 313.241 130.608,312.515 129.461,312.190 129.192 C 311.866 128.923,311.600 128.364,311.600 127.951 C 311.600 127.538,311.449 127.200,311.265 127.200 C 311.081 127.200,310.430 126.255,309.819 125.100 C 309.207 123.945,308.282 122.280,307.763 121.400 C 307.244 120.520,306.630 119.440,306.400 119.000 C 306.170 118.560,305.545 117.480,305.011 116.600 C 304.478 115.720,303.863 114.612,303.645 114.139 C 303.428 113.665,303.058 113.160,302.825 113.015 C 302.591 112.871,302.400 112.398,302.400 111.964 C 302.400 111.530,302.146 111.078,301.836 110.959 C 301.526 110.839,301.152 110.262,301.004 109.675 C 300.857 109.088,300.591 108.516,300.414 108.404 C 300.101 108.206,298.108 104.826,297.109 102.800 C 296.838 102.250,296.489 101.706,296.333 101.592 C 296.177 101.477,295.856 100.937,295.619 100.392 C 295.382 99.846,294.833 98.860,294.398 98.200 C 293.964 97.540,293.385 96.550,293.112 96.000 C 292.840 95.450,292.489 94.906,292.333 94.792 C 292.177 94.677,291.856 94.137,291.619 93.592 C 291.382 93.046,290.837 92.060,290.407 91.400 C 289.977 90.740,289.368 89.637,289.054 88.949 C 288.739 88.261,288.283 87.575,288.041 87.425 C 287.798 87.275,287.600 86.818,287.600 86.410 C 287.600 86.001,287.462 85.607,287.292 85.533 C 286.872 85.351,283.600 79.766,283.600 79.230 C 283.600 78.994,283.432 78.800,283.227 78.800 C 283.022 78.800,282.734 78.423,282.588 77.962 C 281.848 75.629,278.705 72.111,275.800 70.363 L 274.200 69.400 203.200 69.354 C 164.150 69.328,131.210 69.419,130.000 69.557 "
       stroke="none"
       fill="#fbfbfb"
       fill-rule="evenodd" />
    <path
       id="path1"
       d="M0.000 200.000 L 0.000 400.000 200.000 400.000 L 400.000 400.000 400.000 200.000 L 400.000 0.000 200.000 0.000 L 0.000 0.000 0.000 200.000 M275.062 57.800 C 275.851 58.130,276.881 58.403,277.349 58.407 C 277.817 58.410,279.190 58.943,280.400 59.591 C 281.610 60.238,282.979 60.941,283.443 61.153 C 284.754 61.750,288.934 65.770,290.232 67.680 C 290.874 68.626,291.535 69.460,291.700 69.533 C 291.865 69.607,292.000 69.853,292.000 70.081 C 292.000 70.309,293.260 72.625,294.800 75.228 C 296.340 77.830,297.600 80.089,297.600 80.248 C 297.600 80.407,297.856 80.821,298.168 81.169 C 298.481 81.516,299.206 82.700,299.780 83.800 C 300.353 84.900,300.992 86.070,301.200 86.400 C 302.347 88.225,306.800 95.982,306.800 96.155 C 306.800 96.268,307.318 97.134,307.952 98.080 C 308.585 99.026,309.620 100.759,310.252 101.932 C 310.883 103.104,311.796 104.724,312.279 105.532 C 312.763 106.339,313.351 107.360,313.585 107.800 C 313.820 108.240,314.367 109.140,314.802 109.800 C 315.236 110.460,315.712 111.270,315.860 111.600 C 316.135 112.216,321.335 121.323,322.026 122.400 C 322.238 122.730,322.607 123.495,322.845 124.100 C 323.083 124.705,323.429 125.200,323.612 125.200 C 323.796 125.200,324.071 125.605,324.223 126.100 C 324.376 126.595,325.018 127.774,325.650 128.720 C 326.283 129.666,326.800 130.598,326.800 130.791 C 326.800 130.985,327.027 131.381,327.305 131.671 C 327.582 131.962,328.029 132.650,328.298 133.200 C 328.566 133.750,329.374 135.207,330.093 136.438 C 330.812 137.670,332.120 139.919,333.000 141.436 C 333.880 142.954,334.820 144.556,335.089 144.998 C 335.358 145.439,335.859 146.340,336.202 147.000 C 336.545 147.660,337.177 148.740,337.607 149.400 C 338.037 150.060,338.577 151.033,338.808 151.563 C 339.039 152.092,339.762 153.316,340.414 154.283 C 341.066 155.249,341.600 156.107,341.600 156.189 C 341.600 156.270,342.500 157.895,343.600 159.800 C 344.700 161.705,345.600 163.429,345.600 163.632 C 345.600 163.834,345.762 164.000,345.961 164.000 C 346.159 164.000,346.526 164.495,346.777 165.100 C 347.027 165.705,347.670 166.920,348.206 167.800 C 348.742 168.680,349.368 169.760,349.596 170.200 C 349.825 170.640,350.363 171.540,350.793 172.200 C 351.223 172.860,351.903 174.030,352.304 174.800 C 352.705 175.570,354.061 177.945,355.317 180.078 C 356.572 182.211,357.600 184.086,357.600 184.246 C 357.600 184.406,357.852 184.821,358.159 185.169 C 359.203 186.347,362.800 193.607,362.800 194.535 C 362.800 195.042,363.090 196.308,363.444 197.348 C 364.902 201.625,363.311 208.747,359.412 215.400 C 358.638 216.720,357.820 218.160,357.593 218.600 C 357.366 219.040,356.744 220.120,356.210 221.000 C 355.675 221.880,355.105 222.870,354.943 223.200 C 354.781 223.530,353.153 226.358,351.324 229.484 C 349.496 232.610,348.000 235.355,348.000 235.584 C 348.000 235.813,347.832 236.000,347.627 236.000 C 347.422 236.000,347.134 236.377,346.988 236.838 C 346.842 237.298,346.222 238.423,345.611 239.338 C 345.000 240.252,344.376 241.405,344.223 241.900 C 344.071 242.395,343.796 242.800,343.612 242.800 C 343.429 242.800,343.083 243.295,342.845 243.900 C 342.607 244.505,342.238 245.270,342.026 245.600 C 341.335 246.677,336.135 255.784,335.860 256.400 C 335.712 256.730,335.236 257.540,334.802 258.200 C 334.367 258.860,333.825 259.760,333.596 260.200 C 333.368 260.640,332.780 261.671,332.291 262.491 C 331.801 263.310,330.883 264.930,330.252 266.091 C 329.620 267.251,328.585 268.974,327.952 269.920 C 327.318 270.866,326.800 271.741,326.800 271.865 C 326.800 271.988,325.927 273.554,324.859 275.344 C 323.792 277.135,322.800 278.870,322.655 279.200 C 322.510 279.530,322.041 280.340,321.614 281.000 C 321.186 281.660,320.364 283.100,319.787 284.200 C 319.209 285.300,318.481 286.484,318.168 286.831 C 317.856 287.179,317.600 287.595,317.600 287.757 C 317.600 287.919,316.340 290.188,314.800 292.800 C 313.260 295.412,312.000 297.740,312.000 297.974 C 312.000 298.208,311.838 298.400,311.639 298.400 C 311.441 298.400,311.080 298.895,310.838 299.500 C 310.596 300.105,310.044 301.140,309.612 301.800 C 309.179 302.460,308.550 303.540,308.214 304.200 C 307.877 304.860,307.244 305.940,306.807 306.600 C 306.370 307.260,305.848 308.160,305.648 308.600 C 305.448 309.040,303.895 311.740,302.196 314.600 C 300.498 317.460,298.947 320.160,298.748 320.600 C 298.550 321.040,298.037 321.940,297.607 322.600 C 297.177 323.260,296.550 324.340,296.214 325.000 C 295.877 325.660,295.244 326.740,294.807 327.400 C 294.370 328.060,293.818 329.046,293.581 329.592 C 293.344 330.137,293.023 330.677,292.867 330.792 C 292.711 330.906,292.354 331.450,292.072 332.000 C 291.791 332.550,291.273 333.540,290.920 334.200 C 288.043 339.588,280.073 344.241,272.000 345.246 C 267.359 345.823,128.274 345.525,127.561 344.936 C 127.253 344.680,126.280 344.345,125.400 344.191 C 124.520 344.037,123.401 343.660,122.914 343.355 C 122.427 343.050,121.855 342.800,121.642 342.800 C 120.049 342.800,112.434 335.996,111.803 334.010 C 111.662 333.564,111.396 333.200,111.212 333.200 C 111.029 333.200,110.681 332.705,110.441 332.100 C 109.855 330.626,107.658 326.756,106.960 325.969 C 106.652 325.621,106.400 325.227,106.400 325.092 C 106.400 324.957,105.265 322.901,103.877 320.523 C 102.489 318.145,101.221 315.930,101.058 315.600 C 100.895 315.270,100.325 314.280,99.790 313.400 C 99.256 312.520,98.632 311.440,98.404 311.000 C 98.175 310.560,97.633 309.660,97.200 309.000 C 96.767 308.340,96.249 307.440,96.050 307.000 C 95.680 306.183,92.303 300.285,91.583 299.200 C 91.364 298.870,90.961 298.150,90.688 297.600 C 90.414 297.050,89.730 295.880,89.166 295.000 C 88.603 294.120,88.011 293.130,87.852 292.800 C 87.692 292.470,87.123 291.480,86.586 290.600 C 86.049 289.720,85.410 288.505,85.166 287.900 C 84.921 287.295,84.559 286.800,84.361 286.800 C 84.162 286.800,84.000 286.610,84.000 286.378 C 84.000 286.146,83.010 284.273,81.800 282.217 C 80.590 280.161,79.600 278.281,79.600 278.040 C 79.600 277.798,79.458 277.600,79.284 277.600 C 79.110 277.600,78.466 276.655,77.853 275.500 C 76.057 272.118,75.418 271.013,75.125 270.792 C 74.974 270.677,74.651 270.137,74.408 269.592 C 74.165 269.046,73.742 268.240,73.469 267.800 C 73.196 267.360,72.569 266.280,72.075 265.400 C 71.581 264.520,70.825 263.260,70.393 262.600 C 69.962 261.940,69.487 261.130,69.338 260.800 C 69.043 260.146,62.631 248.974,61.992 248.000 C 61.775 247.670,61.414 247.040,61.190 246.600 C 60.965 246.160,60.356 245.080,59.837 244.200 C 59.318 243.320,58.393 241.655,57.781 240.500 C 57.170 239.345,56.519 238.400,56.335 238.400 C 56.151 238.400,56.000 238.198,56.000 237.952 C 56.000 237.706,54.740 235.375,53.200 232.772 C 51.660 230.170,50.400 227.911,50.400 227.752 C 50.400 227.593,50.144 227.179,49.832 226.831 C 49.519 226.484,48.794 225.300,48.220 224.200 C 47.647 223.100,47.005 221.930,46.795 221.600 C 45.171 219.055,41.200 211.856,41.200 211.457 C 41.200 211.184,41.014 210.774,40.786 210.546 C 39.183 208.943,38.410 200.623,39.454 196.200 C 40.146 193.268,43.488 185.940,44.475 185.192 C 44.626 185.078,44.942 184.537,45.178 183.992 C 45.794 182.563,47.900 178.881,49.244 176.880 C 49.880 175.934,50.400 175.067,50.400 174.954 C 50.400 174.840,51.267 173.274,52.326 171.474 C 53.385 169.673,54.383 167.930,54.545 167.600 C 54.706 167.270,55.275 166.280,55.810 165.400 C 56.344 164.520,56.968 163.440,57.196 163.000 C 57.425 162.560,57.963 161.660,58.393 161.000 C 58.823 160.340,59.447 159.260,59.779 158.600 C 60.112 157.940,60.558 157.130,60.771 156.800 C 60.985 156.470,62.343 154.130,63.791 151.600 C 65.239 149.070,66.593 146.730,66.800 146.400 C 67.008 146.070,67.647 144.900,68.220 143.800 C 68.794 142.700,69.498 141.530,69.784 141.200 C 70.071 140.870,70.429 140.195,70.580 139.700 C 70.730 139.205,71.010 138.800,71.200 138.800 C 71.390 138.800,71.666 138.422,71.813 137.961 C 72.031 137.272,77.435 127.751,78.828 125.600 C 79.041 125.270,79.488 124.460,79.821 123.800 C 80.153 123.140,80.778 122.060,81.208 121.400 C 81.639 120.740,82.117 119.930,82.271 119.600 C 82.890 118.275,89.339 107.358,89.851 106.769 C 90.153 106.421,90.400 105.872,90.400 105.549 C 90.400 105.225,90.617 104.743,90.882 104.478 C 91.306 104.054,93.193 100.900,94.399 98.600 C 94.630 98.160,95.248 97.080,95.772 96.200 C 96.296 95.320,97.229 93.655,97.846 92.500 C 98.462 91.345,99.110 90.400,99.284 90.400 C 99.458 90.400,99.600 90.202,99.600 89.960 C 99.600 89.719,100.590 87.839,101.800 85.783 C 103.010 83.727,104.000 81.854,104.000 81.622 C 104.000 81.390,104.162 81.200,104.361 81.200 C 104.559 81.200,104.921 80.705,105.166 80.100 C 105.410 79.495,106.048 78.280,106.584 77.400 C 107.120 76.520,107.730 75.440,107.939 75.000 C 108.149 74.560,108.788 73.517,109.360 72.682 C 109.932 71.847,110.400 71.045,110.400 70.900 C 110.400 70.505,113.570 65.971,114.763 64.660 C 116.860 62.355,123.661 58.419,125.600 58.388 C 126.150 58.379,127.050 58.114,127.600 57.800 C 129.148 56.915,272.944 56.915,275.062 57.800 "
       stroke="none"
       fill="#fcbc3c"
       fill-rule="evenodd" />
    <path
       id="path2"
       d="M128.826 58.475 C 126.033 58.825,124.843 59.226,120.400 61.315 C 118.005 62.442,112.881 67.653,111.468 70.400 C 110.846 71.610,110.001 73.140,109.591 73.800 C 109.181 74.460,108.594 75.450,108.287 76.000 C 107.980 76.550,107.227 77.900,106.613 79.000 C 105.999 80.100,105.277 81.270,105.009 81.600 C 104.741 81.930,104.415 82.501,104.285 82.870 C 104.155 83.238,103.553 84.318,102.948 85.270 C 101.694 87.242,99.866 90.433,98.978 92.200 C 98.646 92.860,98.026 93.940,97.600 94.600 C 97.174 95.260,96.550 96.340,96.214 97.000 C 95.877 97.660,95.242 98.740,94.802 99.400 C 94.362 100.060,93.804 101.095,93.562 101.700 C 93.320 102.305,92.959 102.800,92.761 102.800 C 92.562 102.800,92.400 102.988,92.400 103.218 C 92.400 103.448,90.510 106.860,88.200 110.800 C 85.890 114.740,84.000 118.152,84.000 118.382 C 84.000 118.612,83.838 118.800,83.639 118.800 C 83.441 118.800,83.080 119.295,82.838 119.900 C 82.596 120.505,82.041 121.540,81.605 122.200 C 81.169 122.860,80.618 123.846,80.381 124.392 C 80.144 124.937,79.823 125.477,79.667 125.592 C 79.511 125.706,79.164 126.250,78.895 126.800 C 78.626 127.350,78.234 128.070,78.024 128.400 C 77.389 129.396,73.769 135.756,73.470 136.400 C 73.317 136.730,72.833 137.540,72.395 138.200 C 71.957 138.860,71.323 139.940,70.986 140.600 C 70.650 141.260,70.026 142.340,69.600 143.000 C 69.174 143.660,68.549 144.740,68.211 145.400 C 66.903 147.957,65.054 151.006,64.735 151.133 C 64.551 151.207,64.400 151.453,64.400 151.681 C 64.400 151.909,63.169 154.189,61.666 156.748 C 60.162 159.307,58.810 161.670,58.661 162.000 C 58.513 162.330,58.034 163.140,57.597 163.800 C 57.160 164.460,56.604 165.495,56.362 166.100 C 56.120 166.705,55.777 167.200,55.600 167.200 C 55.423 167.200,55.083 167.695,54.845 168.300 C 54.607 168.905,54.239 169.670,54.028 170.000 C 53.817 170.330,52.096 173.300,50.203 176.600 C 48.311 179.900,46.590 182.870,46.380 183.200 C 46.170 183.530,45.814 184.160,45.590 184.600 C 45.365 185.040,44.752 186.120,44.229 187.000 C 43.705 187.880,42.802 189.590,42.223 190.800 C 41.643 192.010,41.017 193.279,40.830 193.621 C 40.644 193.963,40.268 195.880,39.994 197.883 C 39.283 203.085,39.966 207.678,42.033 211.600 C 42.207 211.930,42.854 213.190,43.471 214.400 C 44.087 215.610,44.706 216.690,44.844 216.800 C 44.983 216.910,45.615 217.949,46.249 219.109 C 46.882 220.270,47.801 221.890,48.291 222.709 C 48.780 223.529,49.365 224.560,49.590 225.000 C 49.814 225.440,50.172 226.070,50.385 226.400 C 50.598 226.730,52.313 229.700,54.197 233.000 C 56.080 236.300,57.798 239.270,58.014 239.600 C 58.229 239.930,58.626 240.650,58.895 241.200 C 59.164 241.750,59.511 242.294,59.667 242.408 C 59.823 242.523,60.144 243.063,60.381 243.608 C 60.618 244.154,61.167 245.140,61.600 245.800 C 62.033 246.460,62.582 247.446,62.819 247.992 C 63.056 248.537,63.377 249.077,63.533 249.192 C 63.689 249.306,64.034 249.850,64.301 250.400 C 64.856 251.545,66.338 254.125,69.900 260.150 C 71.275 262.475,72.400 264.563,72.400 264.789 C 72.400 265.015,72.562 265.200,72.761 265.200 C 72.959 265.200,73.321 265.695,73.566 266.300 C 73.810 266.905,74.448 268.120,74.984 269.000 C 75.520 269.880,76.151 270.960,76.385 271.400 C 76.620 271.840,77.167 272.740,77.600 273.400 C 78.033 274.060,78.551 274.960,78.750 275.400 C 78.949 275.840,80.231 278.090,81.600 280.400 C 82.969 282.710,84.251 284.960,84.450 285.400 C 84.649 285.840,85.159 286.740,85.584 287.400 C 86.008 288.060,86.606 289.050,86.913 289.600 C 89.242 293.776,89.748 294.652,90.054 295.042 C 90.365 295.437,90.836 296.272,93.189 300.600 C 93.548 301.260,94.414 302.700,95.113 303.800 C 95.813 304.900,96.388 306.025,96.392 306.300 C 96.397 306.575,96.562 306.800,96.761 306.800 C 96.959 306.800,97.317 307.295,97.555 307.900 C 97.793 308.505,98.161 309.270,98.373 309.600 C 98.584 309.930,99.262 311.071,99.879 312.135 C 100.495 313.200,101.301 314.550,101.668 315.135 C 102.036 315.721,102.844 317.190,103.464 318.400 C 104.085 319.610,104.690 320.690,104.809 320.800 C 105.282 321.235,108.400 326.767,108.400 327.170 C 108.400 327.406,108.562 327.600,108.761 327.600 C 108.959 327.600,109.321 328.095,109.566 328.700 C 109.810 329.305,110.449 330.520,110.986 331.400 C 111.523 332.280,112.092 333.256,112.250 333.569 C 112.409 333.883,112.823 334.437,113.169 334.802 C 113.516 335.167,114.392 336.151,115.115 336.988 C 116.497 338.588,119.710 341.200,120.296 341.200 C 120.485 341.200,120.850 341.410,121.107 341.667 C 121.656 342.216,123.660 342.983,127.000 343.924 C 129.212 344.547,134.982 344.600,200.800 344.600 C 281.191 344.600,275.004 344.839,282.000 341.467 C 284.262 340.378,289.894 334.788,291.137 332.400 C 291.652 331.410,292.503 329.880,293.027 329.000 C 293.552 328.120,294.167 327.040,294.393 326.600 C 295.524 324.407,297.342 321.330,297.840 320.769 C 298.148 320.421,298.400 319.939,298.400 319.697 C 298.400 319.455,298.627 319.019,298.905 318.729 C 299.182 318.438,299.633 317.750,299.906 317.200 C 300.796 315.407,302.885 311.805,303.154 311.600 C 303.298 311.490,303.631 310.950,303.893 310.400 C 304.155 309.850,305.003 308.320,305.776 307.000 C 306.550 305.680,307.408 304.150,307.683 303.600 C 307.959 303.050,308.311 302.506,308.467 302.392 C 308.623 302.277,308.941 301.737,309.174 301.192 C 309.407 300.646,309.776 299.930,309.994 299.600 C 310.568 298.729,318.193 285.510,318.531 284.800 C 318.688 284.470,319.253 283.480,319.787 282.600 C 320.322 281.720,320.951 280.640,321.185 280.200 C 321.420 279.760,321.967 278.860,322.400 278.200 C 322.833 277.540,323.356 276.622,323.561 276.160 C 323.766 275.698,325.090 273.358,326.503 270.960 C 327.915 268.562,329.192 266.330,329.340 266.000 C 329.488 265.670,329.966 264.860,330.403 264.200 C 330.840 263.540,331.396 262.505,331.638 261.900 C 331.880 261.295,332.223 260.800,332.400 260.800 C 332.577 260.800,332.920 260.305,333.162 259.700 C 333.404 259.095,333.960 258.060,334.397 257.400 C 334.834 256.740,335.313 255.930,335.462 255.600 C 335.742 254.979,342.116 243.863,342.801 242.800 C 343.014 242.470,343.460 241.660,343.793 241.000 C 344.126 240.340,344.756 239.260,345.193 238.600 C 345.630 237.940,346.170 237.040,346.393 236.600 C 346.616 236.160,346.970 235.530,347.181 235.200 C 347.392 234.870,349.470 231.270,351.800 227.200 C 354.130 223.130,356.208 219.530,356.419 219.200 C 356.630 218.870,356.984 218.240,357.207 217.800 C 357.430 217.360,357.955 216.460,358.374 215.800 C 359.286 214.365,360.823 211.277,361.853 208.813 C 362.881 206.352,362.943 195.659,361.940 193.800 C 361.584 193.140,360.819 191.610,360.239 190.400 C 359.660 189.190,359.013 187.930,358.802 187.600 C 357.862 186.129,354.400 180.032,354.400 179.846 C 354.400 179.733,353.882 178.866,353.248 177.920 C 352.213 176.374,350.826 173.939,349.238 170.882 C 348.929 170.287,348.566 169.710,348.430 169.600 C 348.295 169.490,347.962 168.950,347.691 168.400 C 347.420 167.850,346.566 166.320,345.792 165.000 C 345.019 163.680,344.168 162.150,343.901 161.600 C 343.634 161.050,343.307 160.510,343.173 160.400 C 342.910 160.185,340.732 156.441,339.915 154.800 C 339.641 154.250,339.289 153.706,339.133 153.592 C 338.977 153.477,338.656 152.937,338.419 152.392 C 338.182 151.846,337.637 150.860,337.207 150.200 C 336.777 149.540,336.153 148.460,335.821 147.800 C 335.488 147.140,335.036 146.330,334.815 146.000 C 334.595 145.670,332.873 142.700,330.990 139.400 C 329.106 136.100,327.392 133.130,327.181 132.800 C 326.971 132.470,326.616 131.840,326.393 131.400 C 326.170 130.960,325.630 130.060,325.193 129.400 C 324.756 128.740,324.126 127.660,323.793 127.000 C 323.460 126.340,323.015 125.530,322.804 125.200 C 322.592 124.870,320.608 121.450,318.394 117.600 C 316.180 113.750,314.193 110.330,313.979 110.000 C 313.764 109.670,313.393 108.905,313.155 108.300 C 312.917 107.695,312.577 107.200,312.400 107.200 C 312.223 107.200,311.880 106.705,311.638 106.100 C 311.396 105.495,310.840 104.460,310.403 103.800 C 309.966 103.140,309.487 102.330,309.339 102.000 C 309.190 101.670,307.838 99.307,306.334 96.748 C 304.831 94.189,303.600 91.993,303.600 91.868 C 303.600 91.743,303.105 90.866,302.500 89.920 C 301.895 88.974,301.171 87.840,300.892 87.400 C 300.613 86.960,300.112 86.060,299.779 85.400 C 299.447 84.740,298.822 83.660,298.392 83.000 C 297.961 82.340,297.486 81.530,297.335 81.200 C 296.594 79.577,290.146 68.800,289.079 67.400 C 285.224 62.343,279.808 59.303,273.071 58.413 C 269.057 57.883,133.092 57.942,128.826 58.475 M273.239 68.245 C 273.547 68.490,274.310 68.812,274.933 68.961 C 277.408 69.553,281.912 73.501,282.827 75.881 C 283.013 76.365,283.660 77.535,284.265 78.481 C 284.869 79.426,285.656 80.740,286.014 81.400 C 287.855 84.800,288.750 86.363,289.793 88.000 C 290.423 88.990,291.374 90.610,291.905 91.600 C 292.437 92.590,293.216 93.940,293.637 94.600 C 294.057 95.260,294.677 96.340,295.014 97.000 C 295.350 97.660,295.977 98.740,296.407 99.400 C 296.837 100.060,297.377 101.033,297.608 101.563 C 297.839 102.092,298.562 103.316,299.214 104.283 C 299.866 105.249,300.400 106.265,300.400 106.540 C 300.400 106.815,300.601 107.241,300.846 107.486 C 301.310 107.950,302.006 109.086,302.876 110.800 C 303.155 111.350,303.511 111.894,303.667 112.008 C 303.823 112.123,304.151 112.663,304.396 113.208 C 305.079 114.727,306.095 116.577,306.370 116.800 C 306.505 116.910,306.840 117.450,307.112 118.000 C 307.385 118.550,307.965 119.540,308.400 120.200 C 308.835 120.860,309.310 121.670,309.455 122.000 C 309.700 122.558,313.187 128.654,314.030 130.000 C 314.237 130.330,314.626 131.050,314.895 131.600 C 315.164 132.150,315.511 132.694,315.667 132.808 C 315.823 132.923,316.144 133.463,316.381 134.008 C 316.618 134.554,317.170 135.540,317.607 136.200 C 318.044 136.860,318.669 137.973,318.995 138.673 C 319.321 139.373,319.771 140.058,319.994 140.196 C 320.217 140.334,320.400 140.797,320.400 141.224 C 320.400 141.651,320.584 142.000,320.810 142.000 C 321.035 142.000,321.402 142.405,321.625 142.900 C 322.305 144.412,324.571 148.499,325.762 150.363 C 326.382 151.332,327.284 152.862,327.768 153.763 C 328.251 154.663,329.092 156.120,329.637 157.000 C 330.182 157.880,330.851 159.050,331.123 159.600 C 331.395 160.150,332.250 161.680,333.024 163.000 C 333.797 164.320,334.645 165.850,334.907 166.400 C 335.169 166.950,335.540 167.511,335.731 167.648 C 336.037 167.866,337.347 170.178,338.877 173.200 C 339.156 173.750,339.511 174.294,339.667 174.408 C 339.823 174.523,340.144 175.063,340.381 175.608 C 340.618 176.154,341.170 177.140,341.607 177.800 C 342.044 178.460,342.684 179.540,343.028 180.200 C 343.717 181.518,344.443 182.767,345.588 184.600 C 346.000 185.260,346.844 186.790,347.464 188.000 C 348.085 189.210,348.694 190.290,348.818 190.400 C 349.484 190.988,352.333 196.477,352.577 197.642 C 353.154 200.391,353.279 203.281,352.839 203.721 C 352.598 203.962,352.400 204.569,352.400 205.070 C 352.400 205.866,350.118 210.619,349.149 211.842 C 348.956 212.085,348.369 213.092,347.844 214.079 C 347.319 215.067,346.382 216.668,345.762 217.637 C 344.796 219.149,343.172 222.028,341.609 225.000 C 341.377 225.440,340.837 226.340,340.407 227.000 C 339.977 227.660,339.350 228.740,339.014 229.400 C 338.677 230.060,338.044 231.140,337.607 231.800 C 337.170 232.460,336.618 233.446,336.381 233.992 C 336.144 234.537,335.823 235.077,335.667 235.192 C 335.511 235.306,335.156 235.850,334.877 236.400 C 333.766 238.595,332.128 241.489,331.076 243.119 C 330.465 244.065,329.791 245.235,329.577 245.719 C 329.363 246.204,328.833 247.140,328.400 247.800 C 327.967 248.460,327.418 249.446,327.181 249.992 C 326.944 250.537,326.609 251.077,326.437 251.192 C 326.076 251.431,325.041 253.295,324.377 254.900 C 324.127 255.505,323.759 256.000,323.561 256.000 C 323.362 256.000,323.200 256.229,323.200 256.509 C 323.200 256.789,322.570 257.975,321.800 259.144 C 321.030 260.313,320.400 261.425,320.400 261.615 C 320.400 261.805,319.866 262.751,319.214 263.717 C 318.562 264.684,317.839 265.908,317.608 266.437 C 317.377 266.967,316.837 267.940,316.407 268.600 C 315.977 269.260,315.350 270.340,315.014 271.000 C 314.677 271.660,314.043 272.740,313.605 273.400 C 313.167 274.060,312.688 274.870,312.541 275.200 C 312.163 276.049,309.070 281.359,308.813 281.600 C 308.696 281.710,308.260 282.430,307.845 283.200 C 305.782 287.024,305.066 288.299,304.363 289.400 C 303.943 290.060,303.323 291.140,302.986 291.800 C 302.650 292.460,302.023 293.540,301.593 294.200 C 301.163 294.860,300.618 295.846,300.381 296.392 C 300.144 296.937,299.823 297.477,299.667 297.592 C 299.511 297.706,299.160 298.250,298.888 298.800 C 298.615 299.350,298.036 300.340,297.602 301.000 C 297.167 301.660,296.618 302.646,296.381 303.192 C 296.144 303.737,295.823 304.277,295.667 304.392 C 295.511 304.506,295.169 305.050,294.907 305.600 C 294.645 306.150,293.803 307.680,293.037 309.000 C 292.271 310.320,291.170 312.300,290.591 313.400 C 290.011 314.500,289.316 315.670,289.046 316.000 C 288.776 316.330,288.341 317.050,288.080 317.600 C 287.594 318.624,287.404 318.943,285.500 321.920 C 284.895 322.866,284.400 323.743,284.400 323.868 C 284.400 326.064,277.402 333.573,275.316 333.614 C 274.922 333.622,274.150 333.886,273.600 334.200 C 271.851 335.200,131.382 335.044,128.472 334.039 C 127.302 333.635,126.141 333.101,125.892 332.852 C 125.643 332.603,125.251 332.394,125.020 332.387 C 124.075 332.359,120.476 328.350,119.606 326.358 C 119.376 325.831,118.830 324.860,118.393 324.200 C 117.956 323.540,117.323 322.460,116.986 321.800 C 116.650 321.140,116.022 320.060,115.592 319.400 C 115.161 318.740,114.704 317.930,114.576 317.600 C 114.447 317.270,114.184 316.730,113.990 316.400 C 113.796 316.070,112.308 313.550,110.684 310.800 C 109.061 308.050,107.610 305.530,107.462 305.200 C 107.313 304.870,106.835 304.060,106.400 303.400 C 105.965 302.740,105.385 301.750,105.112 301.200 C 104.840 300.650,104.489 300.106,104.333 299.992 C 104.177 299.877,103.858 299.337,103.622 298.792 C 103.059 297.486,100.981 293.814,99.656 291.780 C 99.075 290.890,98.150 289.270,97.600 288.180 C 97.050 287.091,96.476 286.106,96.325 285.992 C 96.174 285.877,95.856 285.337,95.619 284.792 C 95.382 284.246,94.830 283.260,94.393 282.600 C 93.956 281.940,93.323 280.860,92.986 280.200 C 92.650 279.540,92.026 278.460,91.600 277.800 C 91.174 277.140,90.554 276.060,90.222 275.400 C 89.337 273.640,87.507 270.445,86.268 268.495 C 84.629 265.917,82.849 262.731,82.359 261.500 C 82.119 260.895,81.780 260.400,81.608 260.400 C 81.435 260.400,81.178 260.085,81.037 259.700 C 80.896 259.315,80.339 258.280,79.800 257.400 C 79.260 256.520,78.623 255.354,78.384 254.808 C 78.145 254.263,77.823 253.723,77.667 253.608 C 77.511 253.494,77.159 252.950,76.883 252.400 C 76.608 251.850,75.750 250.320,74.976 249.000 C 74.203 247.680,73.355 246.150,73.093 245.600 C 72.831 245.050,72.489 244.506,72.333 244.392 C 72.177 244.277,71.856 243.737,71.619 243.192 C 71.382 242.646,70.833 241.660,70.398 241.000 C 69.964 240.340,69.385 239.350,69.112 238.800 C 68.840 238.250,68.489 237.706,68.333 237.592 C 68.177 237.477,67.856 236.937,67.619 236.392 C 67.382 235.846,66.845 234.860,66.426 234.200 C 66.006 233.540,65.156 232.010,64.536 230.800 C 63.915 229.590,63.279 228.504,63.121 228.387 C 62.831 228.171,60.890 224.812,59.778 222.600 C 59.446 221.940,58.865 220.921,58.487 220.335 C 58.109 219.750,57.295 218.400,56.679 217.335 C 56.062 216.271,55.386 215.130,55.178 214.800 C 54.969 214.470,54.614 213.840,54.390 213.400 C 54.165 212.960,53.552 211.880,53.027 211.000 C 49.173 204.533,48.377 197.863,51.132 195.108 C 51.390 194.850,51.600 194.419,51.600 194.149 C 51.600 193.878,51.827 193.419,52.105 193.129 C 52.382 192.838,52.831 192.150,53.102 191.600 C 53.373 191.050,53.763 190.330,53.970 190.000 C 54.813 188.654,58.300 182.558,58.545 182.000 C 58.690 181.670,59.165 180.860,59.600 180.200 C 60.035 179.540,60.615 178.550,60.888 178.000 C 61.160 177.450,61.511 176.906,61.667 176.792 C 61.823 176.677,62.151 176.137,62.396 175.592 C 63.079 174.073,64.095 172.223,64.370 172.000 C 64.505 171.890,64.840 171.350,65.112 170.800 C 65.385 170.250,65.961 169.260,66.392 168.600 C 66.822 167.940,67.446 166.860,67.778 166.200 C 68.665 164.436,70.494 161.243,71.741 159.281 C 72.343 158.335,73.009 157.165,73.223 156.681 C 73.437 156.196,73.967 155.260,74.400 154.600 C 74.833 153.940,75.375 153.040,75.604 152.600 C 75.832 152.160,76.455 151.080,76.989 150.200 C 77.522 149.320,78.151 148.240,78.386 147.800 C 78.621 147.360,79.232 146.280,79.743 145.400 C 80.254 144.520,81.157 142.907,81.749 141.815 C 82.342 140.724,82.957 139.734,83.117 139.615 C 83.277 139.497,83.915 138.410,84.536 137.200 C 85.156 135.990,86.006 134.460,86.426 133.800 C 86.845 133.140,87.382 132.154,87.619 131.608 C 87.856 131.063,88.177 130.523,88.333 130.408 C 88.489 130.294,88.840 129.750,89.112 129.200 C 89.385 128.650,89.966 127.660,90.403 127.000 C 90.840 126.340,91.396 125.305,91.638 124.700 C 91.880 124.095,92.241 123.600,92.439 123.600 C 92.638 123.600,92.800 123.402,92.800 123.160 C 92.800 122.919,93.790 121.039,95.000 118.983 C 96.210 116.927,97.200 115.054,97.200 114.822 C 97.200 114.590,97.362 114.400,97.561 114.400 C 97.759 114.400,98.120 113.905,98.362 113.300 C 98.604 112.695,99.160 111.660,99.597 111.000 C 100.034 110.340,100.615 109.350,100.888 108.800 C 101.160 108.250,101.511 107.706,101.667 107.592 C 101.823 107.477,102.142 106.937,102.378 106.392 C 102.903 105.174,104.812 101.795,106.268 99.505 C 107.507 97.555,109.337 94.360,110.222 92.600 C 110.554 91.940,111.174 90.860,111.600 90.200 C 112.026 89.540,112.650 88.460,112.986 87.800 C 113.323 87.140,113.956 86.060,114.393 85.400 C 114.830 84.740,115.382 83.754,115.619 83.208 C 115.856 82.663,116.174 82.123,116.325 82.008 C 116.476 81.894,117.126 80.810,117.768 79.600 C 118.411 78.390,119.041 77.310,119.168 77.200 C 119.296 77.090,119.742 76.327,120.161 75.504 C 121.626 72.623,126.188 68.800,128.160 68.800 C 128.644 68.800,129.211 68.633,129.420 68.429 C 129.629 68.224,130.430 67.981,131.200 67.889 C 134.696 67.469,272.695 67.814,273.239 68.245 "
       stroke="none"
       fill="#3f272d"
       fill-rule="evenodd" />
    <path
       id="path3"
       d="M127.600 57.800 C 127.050 58.114,126.150 58.379,125.600 58.388 C 123.661 58.419,116.860 62.355,114.763 64.660 C 113.570 65.971,110.400 70.505,110.400 70.900 C 110.400 71.045,109.932 71.847,109.360 72.682 C 108.788 73.517,108.149 74.560,107.939 75.000 C 107.730 75.440,107.120 76.520,106.584 77.400 C 106.048 78.280,105.410 79.495,105.166 80.100 C 104.921 80.705,104.559 81.200,104.361 81.200 C 104.162 81.200,104.000 81.390,104.000 81.622 C 104.000 81.854,103.010 83.727,101.800 85.783 C 100.590 87.839,99.600 89.719,99.600 89.960 C 99.600 90.202,99.458 90.400,99.284 90.400 C 99.110 90.400,98.462 91.345,97.846 92.500 C 97.229 93.655,96.296 95.320,95.772 96.200 C 95.248 97.080,94.630 98.160,94.399 98.600 C 93.193 100.900,91.306 104.054,90.882 104.478 C 90.617 104.743,90.400 105.225,90.400 105.549 C 90.400 105.872,90.153 106.421,89.851 106.769 C 89.339 107.358,82.890 118.275,82.271 119.600 C 82.117 119.930,81.639 120.740,81.208 121.400 C 80.778 122.060,80.153 123.140,79.821 123.800 C 79.488 124.460,79.041 125.270,78.828 125.600 C 77.435 127.751,72.031 137.272,71.813 137.961 C 71.666 138.422,71.390 138.800,71.200 138.800 C 71.010 138.800,70.730 139.205,70.580 139.700 C 70.429 140.195,70.071 140.870,69.784 141.200 C 69.498 141.530,68.794 142.700,68.220 143.800 C 67.647 144.900,67.008 146.070,66.800 146.400 C 66.593 146.730,65.239 149.070,63.791 151.600 C 62.343 154.130,60.985 156.470,60.771 156.800 C 60.558 157.130,60.112 157.940,59.779 158.600 C 59.447 159.260,58.823 160.340,58.393 161.000 C 57.963 161.660,57.425 162.560,57.196 163.000 C 56.968 163.440,56.344 164.520,55.810 165.400 C 55.275 166.280,54.706 167.270,54.545 167.600 C 54.383 167.930,53.385 169.673,52.326 171.474 C 51.267 173.274,50.400 174.840,50.400 174.954 C 50.400 175.067,49.880 175.934,49.244 176.880 C 47.900 178.881,45.794 182.563,45.178 183.992 C 44.942 184.537,44.626 185.078,44.475 185.192 C 43.488 185.940,40.146 193.268,39.454 196.200 C 38.410 200.623,39.183 208.943,40.786 210.546 C 41.014 210.774,41.200 211.184,41.200 211.457 C 41.200 211.856,45.171 219.055,46.795 221.600 C 47.005 221.930,47.647 223.100,48.220 224.200 C 48.794 225.300,49.519 226.484,49.832 226.831 C 50.144 227.179,50.400 227.593,50.400 227.752 C 50.400 227.911,51.660 230.170,53.200 232.772 C 54.740 235.375,56.000 237.706,56.000 237.952 C 56.000 238.198,56.151 238.400,56.335 238.400 C 56.519 238.400,57.170 239.345,57.781 240.500 C 58.393 241.655,59.318 243.320,59.837 244.200 C 60.356 245.080,60.965 246.160,61.190 246.600 C 61.414 247.040,61.775 247.670,61.992 248.000 C 62.631 248.974,69.043 260.146,69.338 260.800 C 69.487 261.130,69.962 261.940,70.393 262.600 C 70.825 263.260,71.581 264.520,72.075 265.400 C 72.569 266.280,73.196 267.360,73.469 267.800 C 73.742 268.240,74.165 269.046,74.408 269.592 C 74.651 270.137,74.974 270.677,75.125 270.792 C 75.418 271.013,76.057 272.118,77.853 275.500 C 78.466 276.655,79.110 277.600,79.284 277.600 C 79.458 277.600,79.600 277.798,79.600 278.040 C 79.600 278.281,80.590 280.161,81.800 282.217 C 83.010 284.273,84.000 286.146,84.000 286.378 C 84.000 286.610,84.162 286.800,84.361 286.800 C 84.559 286.800,84.921 287.295,85.166 287.900 C 85.410 288.505,86.049 289.720,86.586 290.600 C 87.123 291.480,87.692 292.470,87.852 292.800 C 88.011 293.130,88.603 294.120,89.166 295.000 C 89.730 295.880,90.414 297.050,90.688 297.600 C 90.961 298.150,91.364 298.870,91.583 299.200 C 92.303 300.285,95.680 306.183,96.050 307.000 C 96.249 307.440,96.767 308.340,97.200 309.000 C 97.633 309.660,98.175 310.560,98.404 311.000 C 98.632 311.440,99.256 312.520,99.790 313.400 C 100.325 314.280,100.895 315.270,101.058 315.600 C 101.221 315.930,102.489 318.145,103.877 320.523 C 105.265 322.901,106.400 324.957,106.400 325.092 C 106.400 325.227,106.652 325.621,106.960 325.969 C 107.658 326.756,109.855 330.626,110.441 332.100 C 110.681 332.705,111.029 333.200,111.212 333.200 C 111.396 333.200,111.662 333.564,111.803 334.010 C 112.434 335.996,120.049 342.800,121.642 342.800 C 121.855 342.800,122.427 343.050,122.914 343.355 C 123.401 343.660,124.520 344.037,125.400 344.191 C 126.280 344.345,127.253 344.680,127.561 344.936 C 128.274 345.525,267.359 345.823,272.000 345.246 C 280.073 344.241,288.043 339.588,290.920 334.200 C 291.273 333.540,291.791 332.550,292.072 332.000 C 292.354 331.450,292.711 330.906,292.867 330.792 C 293.023 330.677,293.344 330.137,293.581 329.592 C 293.818 329.046,294.370 328.060,294.807 327.400 C 295.244 326.740,295.877 325.660,296.214 325.000 C 296.550 324.340,297.177 323.260,297.607 322.600 C 298.037 321.940,298.550 321.040,298.748 320.600 C 298.947 320.160,300.498 317.460,302.196 314.600 C 303.895 311.740,305.448 309.040,305.648 308.600 C 305.848 308.160,306.370 307.260,306.807 306.600 C 307.244 305.940,307.877 304.860,308.214 304.200 C 308.550 303.540,309.179 302.460,309.612 301.800 C 310.044 301.140,310.596 300.105,310.838 299.500 C 311.080 298.895,311.441 298.400,311.639 298.400 C 311.838 298.400,312.000 298.208,312.000 297.974 C 312.000 297.740,313.260 295.412,314.800 292.800 C 316.340 290.188,317.600 287.919,317.600 287.757 C 317.600 287.595,317.856 287.179,318.168 286.831 C 318.481 286.484,319.209 285.300,319.787 284.200 C 320.364 283.100,321.186 281.660,321.614 281.000 C 322.041 280.340,322.510 279.530,322.655 279.200 C 322.800 278.870,323.792 277.135,324.859 275.344 C 325.927 273.554,326.800 271.988,326.800 271.865 C 326.800 271.741,327.318 270.866,327.952 269.920 C 328.585 268.974,329.620 267.251,330.252 266.091 C 330.883 264.930,331.801 263.310,332.291 262.491 C 332.780 261.671,333.368 260.640,333.596 260.200 C 333.825 259.760,334.367 258.860,334.802 258.200 C 335.236 257.540,335.712 256.730,335.860 256.400 C 336.135 255.784,341.335 246.677,342.026 245.600 C 342.238 245.270,342.607 244.505,342.845 243.900 C 343.083 243.295,343.429 242.800,343.612 242.800 C 343.796 242.800,344.071 242.395,344.223 241.900 C 344.376 241.405,345.000 240.252,345.611 239.338 C 346.222 238.423,346.842 237.298,346.988 236.838 C 347.134 236.377,347.422 236.000,347.627 236.000 C 347.832 236.000,348.000 235.813,348.000 235.584 C 348.000 235.355,349.496 232.610,351.324 229.484 C 353.153 226.358,354.781 223.530,354.943 223.200 C 355.105 222.870,355.675 221.880,356.210 221.000 C 356.744 220.120,357.366 219.040,357.593 218.600 C 357.820 218.160,358.638 216.720,359.412 215.400 C 363.311 208.747,364.902 201.625,363.444 197.348 C 363.090 196.308,362.800 195.042,362.800 194.535 C 362.800 193.607,359.203 186.347,358.159 185.169 C 357.852 184.821,357.600 184.406,357.600 184.246 C 357.600 184.086,356.572 182.211,355.317 180.078 C 354.061 177.945,352.705 175.570,352.304 174.800 C 351.903 174.030,351.223 172.860,350.793 172.200 C 350.363 171.540,349.825 170.640,349.596 170.200 C 349.368 169.760,348.742 168.680,348.206 167.800 C 347.670 166.920,347.027 165.705,346.777 165.100 C 346.526 164.495,346.159 164.000,345.961 164.000 C 345.762 164.000,345.600 163.834,345.600 163.632 C 345.600 163.429,344.700 161.705,343.600 159.800 C 342.500 157.895,341.600 156.270,341.600 156.189 C 341.600 156.107,341.066 155.249,340.414 154.283 C 339.762 153.316,339.039 152.092,338.808 151.563 C 338.577 151.033,338.037 150.060,337.607 149.400 C 337.177 148.740,336.545 147.660,336.202 147.000 C 335.859 146.340,335.358 145.439,335.089 144.998 C 334.820 144.556,333.880 142.954,333.000 141.436 C 332.120 139.919,330.812 137.670,330.093 136.438 C 329.374 135.207,328.566 133.750,328.298 133.200 C 328.029 132.650,327.582 131.962,327.305 131.671 C 327.027 131.381,326.800 130.985,326.800 130.791 C 326.800 130.598,326.283 129.666,325.650 128.720 C 325.018 127.774,324.376 126.595,324.223 126.100 C 324.071 125.605,323.796 125.200,323.612 125.200 C 323.429 125.200,323.083 124.705,322.845 124.100 C 322.607 123.495,322.238 122.730,322.026 122.400 C 321.335 121.323,316.135 112.216,315.860 111.600 C 315.712 111.270,315.236 110.460,314.802 109.800 C 314.367 109.140,313.820 108.240,313.585 107.800 C 313.351 107.360,312.763 106.339,312.279 105.532 C 311.796 104.724,310.883 103.104,310.252 101.932 C 309.620 100.759,308.585 99.026,307.952 98.080 C 307.318 97.134,306.800 96.268,306.800 96.155 C 306.800 95.982,302.347 88.225,301.200 86.400 C 300.992 86.070,300.353 84.900,299.780 83.800 C 299.206 82.700,298.481 81.516,298.168 81.169 C 297.856 80.821,297.600 80.407,297.600 80.248 C 297.600 80.089,296.340 77.830,294.800 75.228 C 293.260 72.625,292.000 70.309,292.000 70.081 C 292.000 69.853,291.865 69.607,291.700 69.533 C 291.535 69.460,290.874 68.626,290.232 67.680 C 288.934 65.770,284.754 61.750,283.443 61.153 C 282.979 60.941,281.610 60.238,280.400 59.591 C 279.190 58.943,277.817 58.410,277.349 58.407 C 276.881 58.403,275.851 58.130,275.062 57.800 C 272.944 56.915,129.148 56.915,127.600 57.800 M273.071 58.413 C 279.808 59.303,285.224 62.343,289.079 67.400 C 290.146 68.800,296.594 79.577,297.335 81.200 C 297.486 81.530,297.961 82.340,298.392 83.000 C 298.822 83.660,299.447 84.740,299.779 85.400 C 300.112 86.060,300.613 86.960,300.892 87.400 C 301.171 87.840,301.895 88.974,302.500 89.920 C 303.105 90.866,303.600 91.743,303.600 91.868 C 303.600 91.993,304.831 94.189,306.334 96.748 C 307.838 99.307,309.190 101.670,309.339 102.000 C 309.487 102.330,309.966 103.140,310.403 103.800 C 310.840 104.460,311.396 105.495,311.638 106.100 C 311.880 106.705,312.223 107.200,312.400 107.200 C 312.577 107.200,312.917 107.695,313.155 108.300 C 313.393 108.905,313.764 109.670,313.979 110.000 C 314.193 110.330,316.180 113.750,318.394 117.600 C 320.608 121.450,322.592 124.870,322.804 125.200 C 323.015 125.530,323.460 126.340,323.793 127.000 C 324.126 127.660,324.756 128.740,325.193 129.400 C 325.630 130.060,326.170 130.960,326.393 131.400 C 326.616 131.840,326.971 132.470,327.181 132.800 C 327.392 133.130,329.106 136.100,330.990 139.400 C 332.873 142.700,334.595 145.670,334.815 146.000 C 335.036 146.330,335.488 147.140,335.821 147.800 C 336.153 148.460,336.777 149.540,337.207 150.200 C 337.637 150.860,338.182 151.846,338.419 152.392 C 338.656 152.937,338.977 153.477,339.133 153.592 C 339.289 153.706,339.641 154.250,339.915 154.800 C 340.732 156.441,342.910 160.185,343.173 160.400 C 343.307 160.510,343.634 161.050,343.901 161.600 C 344.168 162.150,345.019 163.680,345.792 165.000 C 346.566 166.320,347.420 167.850,347.691 168.400 C 347.962 168.950,348.295 169.490,348.430 169.600 C 348.566 169.710,348.929 170.287,349.238 170.882 C 350.826 173.939,352.213 176.374,353.248 177.920 C 353.882 178.866,354.400 179.733,354.400 179.846 C 354.400 180.032,357.862 186.129,358.802 187.600 C 359.013 187.930,359.660 189.190,360.239 190.400 C 360.819 191.610,361.584 193.140,361.940 193.800 C 362.943 195.659,362.881 206.352,361.853 208.813 C 360.823 211.277,359.286 214.365,358.374 215.800 C 357.955 216.460,357.430 217.360,357.207 217.800 C 356.984 218.240,356.630 218.870,356.419 219.200 C 356.208 219.530,354.130 223.130,351.800 227.200 C 349.470 231.270,347.392 234.870,347.181 235.200 C 346.970 235.530,346.616 236.160,346.393 236.600 C 346.170 237.040,345.630 237.940,345.193 238.600 C 344.756 239.260,344.126 240.340,343.793 241.000 C 343.460 241.660,343.014 242.470,342.801 242.800 C 342.116 243.863,335.742 254.979,335.462 255.600 C 335.313 255.930,334.834 256.740,334.397 257.400 C 333.960 258.060,333.404 259.095,333.162 259.700 C 332.920 260.305,332.577 260.800,332.400 260.800 C 332.223 260.800,331.880 261.295,331.638 261.900 C 331.396 262.505,330.840 263.540,330.403 264.200 C 329.966 264.860,329.488 265.670,329.340 266.000 C 329.192 266.330,327.915 268.562,326.503 270.960 C 325.090 273.358,323.766 275.698,323.561 276.160 C 323.356 276.622,322.833 277.540,322.400 278.200 C 321.967 278.860,321.420 279.760,321.185 280.200 C 320.951 280.640,320.322 281.720,319.787 282.600 C 319.253 283.480,318.688 284.470,318.531 284.800 C 318.193 285.510,310.568 298.729,309.994 299.600 C 309.776 299.930,309.407 300.646,309.174 301.192 C 308.941 301.737,308.623 302.277,308.467 302.392 C 308.311 302.506,307.959 303.050,307.683 303.600 C 307.408 304.150,306.550 305.680,305.776 307.000 C 305.003 308.320,304.155 309.850,303.893 310.400 C 303.631 310.950,303.298 311.490,303.154 311.600 C 302.885 311.805,300.796 315.407,299.906 317.200 C 299.633 317.750,299.182 318.438,298.905 318.729 C 298.627 319.019,298.400 319.455,298.400 319.697 C 298.400 319.939,298.148 320.421,297.840 320.769 C 297.342 321.330,295.524 324.407,294.393 326.600 C 294.167 327.040,293.552 328.120,293.027 329.000 C 292.503 329.880,291.652 331.410,291.137 332.400 C 289.894 334.788,284.262 340.378,282.000 341.467 C 275.004 344.839,281.191 344.600,200.800 344.600 C 134.982 344.600,129.212 344.547,127.000 343.924 C 123.660 342.983,121.656 342.216,121.107 341.667 C 120.850 341.410,120.485 341.200,120.296 341.200 C 119.710 341.200,116.497 338.588,115.115 336.988 C 114.392 336.151,113.516 335.167,113.169 334.802 C 112.823 334.437,112.409 333.883,112.250 333.569 C 112.092 333.256,111.523 332.280,110.986 331.400 C 110.449 330.520,109.810 329.305,109.566 328.700 C 109.321 328.095,108.959 327.600,108.761 327.600 C 108.562 327.600,108.400 327.406,108.400 327.170 C 108.400 326.767,105.282 321.235,104.809 320.800 C 104.690 320.690,104.085 319.610,103.464 318.400 C 102.844 317.190,102.036 315.721,101.668 315.135 C 101.301 314.550,100.495 313.200,99.879 312.135 C 99.262 311.071,98.584 309.930,98.373 309.600 C 98.161 309.270,97.793 308.505,97.555 307.900 C 97.317 307.295,96.959 306.800,96.761 306.800 C 96.562 306.800,96.397 306.575,96.392 306.300 C 96.388 306.025,95.813 304.900,95.113 303.800 C 94.414 302.700,93.548 301.260,93.189 300.600 C 90.836 296.272,90.365 295.437,90.054 295.042 C 89.748 294.652,89.242 293.776,86.913 289.600 C 86.606 289.050,86.008 288.060,85.584 287.400 C 85.159 286.740,84.649 285.840,84.450 285.400 C 84.251 284.960,82.969 282.710,81.600 280.400 C 80.231 278.090,78.949 275.840,78.750 275.400 C 78.551 274.960,78.033 274.060,77.600 273.400 C 77.167 272.740,76.620 271.840,76.385 271.400 C 76.151 270.960,75.520 269.880,74.984 269.000 C 74.448 268.120,73.810 266.905,73.566 266.300 C 73.321 265.695,72.959 265.200,72.761 265.200 C 72.562 265.200,72.400 265.015,72.400 264.789 C 72.400 264.563,71.275 262.475,69.900 260.150 C 66.338 254.125,64.856 251.545,64.301 250.400 C 64.034 249.850,63.689 249.306,63.533 249.192 C 63.377 249.077,63.056 248.537,62.819 247.992 C 62.582 247.446,62.033 246.460,61.600 245.800 C 61.167 245.140,60.618 244.154,60.381 243.608 C 60.144 243.063,59.823 242.523,59.667 242.408 C 59.511 242.294,59.164 241.750,58.895 241.200 C 58.626 240.650,58.229 239.930,58.014 239.600 C 57.798 239.270,56.080 236.300,54.197 233.000 C 52.313 229.700,50.598 226.730,50.385 226.400 C 50.172 226.070,49.814 225.440,49.590 225.000 C 49.365 224.560,48.780 223.529,48.291 222.709 C 47.801 221.890,46.882 220.270,46.249 219.109 C 45.615 217.949,44.983 216.910,44.844 216.800 C 44.706 216.690,44.087 215.610,43.471 214.400 C 42.854 213.190,42.207 211.930,42.033 211.600 C 39.966 207.678,39.283 203.085,39.994 197.883 C 40.268 195.880,40.644 193.963,40.830 193.621 C 41.017 193.279,41.643 192.010,42.223 190.800 C 42.802 189.590,43.705 187.880,44.229 187.000 C 44.752 186.120,45.365 185.040,45.590 184.600 C 45.814 184.160,46.170 183.530,46.380 183.200 C 46.590 182.870,48.311 179.900,50.203 176.600 C 52.096 173.300,53.817 170.330,54.028 170.000 C 54.239 169.670,54.607 168.905,54.845 168.300 C 55.083 167.695,55.423 167.200,55.600 167.200 C 55.777 167.200,56.120 166.705,56.362 166.100 C 56.604 165.495,57.160 164.460,57.597 163.800 C 58.034 163.140,58.513 162.330,58.661 162.000 C 58.810 161.670,60.162 159.307,61.666 156.748 C 63.169 154.189,64.400 151.909,64.400 151.681 C 64.400 151.453,64.551 151.207,64.735 151.133 C 65.054 151.006,66.903 147.957,68.211 145.400 C 68.549 144.740,69.174 143.660,69.600 143.000 C 70.026 142.340,70.650 141.260,70.986 140.600 C 71.323 139.940,71.957 138.860,72.395 138.200 C 72.833 137.540,73.317 136.730,73.470 136.400 C 73.769 135.756,77.389 129.396,78.024 128.400 C 78.234 128.070,78.626 127.350,78.895 126.800 C 79.164 126.250,79.511 125.706,79.667 125.592 C 79.823 125.477,80.144 124.937,80.381 124.392 C 80.618 123.846,81.169 122.860,81.605 122.200 C 82.041 121.540,82.596 120.505,82.838 119.900 C 83.080 119.295,83.441 118.800,83.639 118.800 C 83.838 118.800,84.000 118.612,84.000 118.382 C 84.000 118.152,85.890 114.740,88.200 110.800 C 90.510 106.860,92.400 103.448,92.400 103.218 C 92.400 102.988,92.562 102.800,92.761 102.800 C 92.959 102.800,93.320 102.305,93.562 101.700 C 93.804 101.095,94.362 100.060,94.802 99.400 C 95.242 98.740,95.877 97.660,96.214 97.000 C 96.550 96.340,97.174 95.260,97.600 94.600 C 98.026 93.940,98.646 92.860,98.978 92.200 C 99.866 90.433,101.694 87.242,102.948 85.270 C 103.553 84.318,104.155 83.238,104.285 82.870 C 104.415 82.501,104.741 81.930,105.009 81.600 C 105.277 81.270,105.999 80.100,106.613 79.000 C 107.227 77.900,107.980 76.550,108.287 76.000 C 108.594 75.450,109.181 74.460,109.591 73.800 C 110.001 73.140,110.846 71.610,111.468 70.400 C 112.881 67.653,118.005 62.442,120.400 61.315 C 124.843 59.226,126.033 58.825,128.826 58.475 C 133.092 57.942,269.057 57.883,273.071 58.413 M131.200 67.889 C 130.430 67.981,129.629 68.224,129.420 68.429 C 129.211 68.633,128.644 68.800,128.160 68.800 C 126.188 68.800,121.626 72.623,120.161 75.504 C 119.742 76.327,119.296 77.090,119.168 77.200 C 119.041 77.310,118.411 78.390,117.768 79.600 C 117.126 80.810,116.476 81.894,116.325 82.008 C 116.174 82.123,115.856 82.663,115.619 83.208 C 115.382 83.754,114.830 84.740,114.393 85.400 C 113.956 86.060,113.323 87.140,112.986 87.800 C 112.650 88.460,112.026 89.540,111.600 90.200 C 111.174 90.860,110.554 91.940,110.222 92.600 C 109.337 94.360,107.507 97.555,106.268 99.505 C 104.812 101.795,102.903 105.174,102.378 106.392 C 102.142 106.937,101.823 107.477,101.667 107.592 C 101.511 107.706,101.160 108.250,100.888 108.800 C 100.615 109.350,100.034 110.340,99.597 111.000 C 99.160 111.660,98.604 112.695,98.362 113.300 C 98.120 113.905,97.759 114.400,97.561 114.400 C 97.362 114.400,97.200 114.590,97.200 114.822 C 97.200 115.054,96.210 116.927,95.000 118.983 C 93.790 121.039,92.800 122.919,92.800 123.160 C 92.800 123.402,92.638 123.600,92.439 123.600 C 92.241 123.600,91.880 124.095,91.638 124.700 C 91.396 125.305,90.840 126.340,90.403 127.000 C 89.966 127.660,89.385 128.650,89.112 129.200 C 88.840 129.750,88.489 130.294,88.333 130.408 C 88.177 130.523,87.856 131.063,87.619 131.608 C 87.382 132.154,86.845 133.140,86.426 133.800 C 86.006 134.460,85.156 135.990,84.536 137.200 C 83.915 138.410,83.277 139.497,83.117 139.615 C 82.957 139.734,82.342 140.724,81.749 141.815 C 81.157 142.907,80.254 144.520,79.743 145.400 C 79.232 146.280,78.621 147.360,78.386 147.800 C 78.151 148.240,77.522 149.320,76.989 150.200 C 76.455 151.080,75.832 152.160,75.604 152.600 C 75.375 153.040,74.833 153.940,74.400 154.600 C 73.967 155.260,73.437 156.196,73.223 156.681 C 73.009 157.165,72.343 158.335,71.741 159.281 C 70.494 161.243,68.665 164.436,67.778 166.200 C 67.446 166.860,66.822 167.940,66.392 168.600 C 65.961 169.260,65.385 170.250,65.112 170.800 C 64.840 171.350,64.505 171.890,64.370 172.000 C 64.095 172.223,63.079 174.073,62.396 175.592 C 62.151 176.137,61.823 176.677,61.667 176.792 C 61.511 176.906,61.160 177.450,60.888 178.000 C 60.615 178.550,60.035 179.540,59.600 180.200 C 59.165 180.860,58.690 181.670,58.545 182.000 C 58.300 182.558,54.813 188.654,53.970 190.000 C 53.763 190.330,53.373 191.050,53.102 191.600 C 52.831 192.150,52.382 192.838,52.105 193.129 C 51.827 193.419,51.600 193.878,51.600 194.149 C 51.600 194.419,51.390 194.850,51.132 195.108 C 48.377 197.863,49.173 204.533,53.027 211.000 C 53.552 211.880,54.165 212.960,54.390 213.400 C 54.614 213.840,54.969 214.470,55.178 214.800 C 55.386 215.130,56.062 216.271,56.679 217.335 C 57.295 218.400,58.109 219.750,58.487 220.335 C 58.865 220.921,59.446 221.940,59.778 222.600 C 60.890 224.812,62.831 228.171,63.121 228.387 C 63.279 228.504,63.915 229.590,64.536 230.800 C 65.156 232.010,66.006 233.540,66.426 234.200 C 66.845 234.860,67.382 235.846,67.619 236.392 C 67.856 236.937,68.177 237.477,68.333 237.592 C 68.489 237.706,68.840 238.250,69.112 238.800 C 69.385 239.350,69.964 240.340,70.398 241.000 C 70.833 241.660,71.382 242.646,71.619 243.192 C 71.856 243.737,72.177 244.277,72.333 244.392 C 72.489 244.506,72.831 245.050,73.093 245.600 C 73.355 246.150,74.203 247.680,74.976 249.000 C 75.750 250.320,76.608 251.850,76.883 252.400 C 77.159 252.950,77.511 253.494,77.667 253.608 C 77.823 253.723,78.145 254.263,78.384 254.808 C 78.623 255.354,79.260 256.520,79.800 257.400 C 80.339 258.280,80.896 259.315,81.037 259.700 C 81.178 260.085,81.435 260.400,81.608 260.400 C 81.780 260.400,82.119 260.895,82.359 261.500 C 82.849 262.731,84.629 265.917,86.268 268.495 C 87.507 270.445,89.337 273.640,90.222 275.400 C 90.554 276.060,91.174 277.140,91.600 277.800 C 92.026 278.460,92.650 279.540,92.986 280.200 C 93.323 280.860,93.956 281.940,94.393 282.600 C 94.830 283.260,95.382 284.246,95.619 284.792 C 95.856 285.337,96.174 285.877,96.325 285.992 C 96.476 286.106,97.050 287.091,97.600 288.180 C 98.150 289.270,99.075 290.890,99.656 291.780 C 100.981 293.814,103.059 297.486,103.622 298.792 C 103.858 299.337,104.177 299.877,104.333 299.992 C 104.489 300.106,104.840 300.650,105.112 301.200 C 105.385 301.750,105.965 302.740,106.400 303.400 C 106.835 304.060,107.313 304.870,107.462 305.200 C 107.610 305.530,109.061 308.050,110.684 310.800 C 112.308 313.550,113.796 316.070,113.990 316.400 C 114.184 316.730,114.447 317.270,114.576 317.600 C 114.704 317.930,115.161 318.740,115.592 319.400 C 116.022 320.060,116.650 321.140,116.986 321.800 C 117.323 322.460,117.956 323.540,118.393 324.200 C 118.830 324.860,119.376 325.831,119.606 326.358 C 120.476 328.350,124.075 332.359,125.020 332.387 C 125.251 332.394,125.643 332.603,125.892 332.852 C 126.141 333.101,127.302 333.635,128.472 334.039 C 131.382 335.044,271.851 335.200,273.600 334.200 C 274.150 333.886,274.922 333.622,275.316 333.614 C 277.402 333.573,284.400 326.064,284.400 323.868 C 284.400 323.743,284.895 322.866,285.500 321.920 C 287.404 318.943,287.594 318.624,288.080 317.600 C 288.341 317.050,288.776 316.330,289.046 316.000 C 289.316 315.670,290.011 314.500,290.591 313.400 C 291.170 312.300,292.271 310.320,293.037 309.000 C 293.803 307.680,294.645 306.150,294.907 305.600 C 295.169 305.050,295.511 304.506,295.667 304.392 C 295.823 304.277,296.144 303.737,296.381 303.192 C 296.618 302.646,297.167 301.660,297.602 301.000 C 298.036 300.340,298.615 299.350,298.888 298.800 C 299.160 298.250,299.511 297.706,299.667 297.592 C 299.823 297.477,300.144 296.937,300.381 296.392 C 300.618 295.846,301.163 294.860,301.593 294.200 C 302.023 293.540,302.650 292.460,302.986 291.800 C 303.323 291.140,303.943 290.060,304.363 289.400 C 305.066 288.299,305.782 287.024,307.845 283.200 C 308.260 282.430,308.696 281.710,308.813 281.600 C 309.070 281.359,312.163 276.049,312.541 275.200 C 312.688 274.870,313.167 274.060,313.605 273.400 C 314.043 272.740,314.677 271.660,315.014 271.000 C 315.350 270.340,315.977 269.260,316.407 268.600 C 316.837 267.940,317.377 266.967,317.608 266.437 C 317.839 265.908,318.562 264.684,319.214 263.717 C 319.866 262.751,320.400 261.805,320.400 261.615 C 320.400 261.425,321.030 260.313,321.800 259.144 C 322.570 257.975,323.200 256.789,323.200 256.509 C 323.200 256.229,323.362 256.000,323.561 256.000 C 323.759 256.000,324.127 255.505,324.377 254.900 C 325.041 253.295,326.076 251.431,326.437 251.192 C 326.609 251.077,326.944 250.537,327.181 249.992 C 327.418 249.446,327.967 248.460,328.400 247.800 C 328.833 247.140,329.363 246.204,329.577 245.719 C 329.791 245.235,330.465 244.065,331.076 243.119 C 332.128 241.489,333.766 238.595,334.877 236.400 C 335.156 235.850,335.511 235.306,335.667 235.192 C 335.823 235.077,336.144 234.537,336.381 233.992 C 336.618 233.446,337.170 232.460,337.607 231.800 C 338.044 231.140,338.677 230.060,339.014 229.400 C 339.350 228.740,339.977 227.660,340.407 227.000 C 340.837 226.340,341.377 225.440,341.609 225.000 C 343.172 222.028,344.796 219.149,345.762 217.637 C 346.382 216.668,347.319 215.067,347.844 214.079 C 348.369 213.092,348.956 212.085,349.149 211.842 C 350.118 210.619,352.400 205.866,352.400 205.070 C 352.400 204.569,352.598 203.962,352.839 203.721 C 353.279 203.281,353.154 200.391,352.577 197.642 C 352.333 196.477,349.484 190.988,348.818 190.400 C 348.694 190.290,348.085 189.210,347.464 188.000 C 346.844 186.790,346.000 185.260,345.588 184.600 C 344.443 182.767,343.717 181.518,343.028 180.200 C 342.684 179.540,342.044 178.460,341.607 177.800 C 341.170 177.140,340.618 176.154,340.381 175.608 C 340.144 175.063,339.823 174.523,339.667 174.408 C 339.511 174.294,339.156 173.750,338.877 173.200 C 337.347 170.178,336.037 167.866,335.731 167.648 C 335.540 167.511,335.169 166.950,334.907 166.400 C 334.645 165.850,333.797 164.320,333.024 163.000 C 332.250 161.680,331.395 160.150,331.123 159.600 C 330.851 159.050,330.182 157.880,329.637 157.000 C 329.092 156.120,328.251 154.663,327.768 153.763 C 327.284 152.862,326.382 151.332,325.762 150.363 C 324.571 148.499,322.305 144.412,321.625 142.900 C 321.402 142.405,321.035 142.000,320.810 142.000 C 320.584 142.000,320.400 141.651,320.400 141.224 C 320.400 140.797,320.217 140.334,319.994 140.196 C 319.771 140.058,319.321 139.373,318.995 138.673 C 318.669 137.973,318.044 136.860,317.607 136.200 C 317.170 135.540,316.618 134.554,316.381 134.008 C 316.144 133.463,315.823 132.923,315.667 132.808 C 315.511 132.694,315.164 132.150,314.895 131.600 C 314.626 131.050,314.237 130.330,314.030 130.000 C 313.187 128.654,309.700 122.558,309.455 122.000 C 309.310 121.670,308.835 120.860,308.400 120.200 C 307.965 119.540,307.385 118.550,307.112 118.000 C 306.840 117.450,306.505 116.910,306.370 116.800 C 306.095 116.577,305.079 114.727,304.396 113.208 C 304.151 112.663,303.823 112.123,303.667 112.008 C 303.511 111.894,303.155 111.350,302.876 110.800 C 302.006 109.086,301.310 107.950,300.846 107.486 C 300.601 107.241,300.400 106.815,300.400 106.540 C 300.400 106.265,299.866 105.249,299.214 104.283 C 298.562 103.316,297.839 102.092,297.608 101.563 C 297.377 101.033,296.837 100.060,296.407 99.400 C 295.977 98.740,295.350 97.660,295.014 97.000 C 294.677 96.340,294.057 95.260,293.637 94.600 C 293.216 93.940,292.437 92.590,291.905 91.600 C 291.374 90.610,290.423 88.990,289.793 88.000 C 288.750 86.363,287.855 84.800,286.014 81.400 C 285.656 80.740,284.869 79.426,284.265 78.481 C 283.660 77.535,283.013 76.365,282.827 75.881 C 281.912 73.501,277.408 69.553,274.933 68.961 C 274.310 68.812,273.547 68.490,273.239 68.245 C 272.695 67.814,134.696 67.469,131.200 67.889 M272.367 68.846 C 276.468 69.541,282.800 74.476,282.800 76.978 C 282.800 77.054,284.529 80.060,286.641 83.658 C 288.754 87.256,290.652 90.560,290.859 91.000 C 291.065 91.440,291.452 92.164,291.717 92.608 C 292.926 94.632,294.634 97.472,295.079 98.200 C 295.348 98.640,295.696 99.270,295.853 99.600 C 296.009 99.930,297.933 103.260,300.128 107.000 C 302.324 110.740,304.551 114.610,305.078 115.600 C 305.605 116.590,306.386 117.940,306.814 118.600 C 307.241 119.260,307.714 120.070,307.864 120.400 C 308.128 120.979,317.245 136.778,318.021 138.000 C 318.231 138.330,318.584 138.960,318.807 139.400 C 319.030 139.840,319.567 140.740,320.002 141.400 C 320.436 142.060,320.913 142.870,321.062 143.200 C 321.210 143.530,323.168 146.950,325.412 150.800 C 327.656 154.650,329.880 158.520,330.354 159.400 C 332.218 162.861,333.739 165.476,334.844 167.120 C 335.480 168.066,336.000 168.930,336.000 169.040 C 336.000 169.150,337.502 171.796,339.338 174.920 C 341.173 178.044,342.792 180.870,342.935 181.200 C 343.078 181.530,343.373 182.070,343.592 182.400 C 344.149 183.242,349.015 191.677,350.746 194.800 C 352.472 197.915,352.883 204.198,351.518 206.600 C 349.660 209.870,341.111 224.677,340.779 225.200 C 340.569 225.530,340.216 226.160,339.993 226.600 C 339.770 227.040,339.233 227.940,338.800 228.600 C 338.367 229.260,337.844 230.178,337.639 230.640 C 337.434 231.102,336.081 233.475,334.633 235.915 C 333.185 238.354,332.000 240.436,332.000 240.540 C 332.000 240.645,331.366 241.691,330.590 242.865 C 329.815 244.039,328.813 245.720,328.364 246.600 C 327.915 247.480,327.201 248.740,326.778 249.400 C 326.355 250.060,325.783 251.050,325.507 251.600 C 325.231 252.150,323.321 255.480,321.261 259.000 C 319.202 262.520,317.353 265.760,317.153 266.200 C 316.952 266.640,316.443 267.540,316.022 268.200 C 315.601 268.860,314.772 270.300,314.181 271.400 C 313.590 272.500,312.910 273.644,312.669 273.943 C 312.186 274.541,311.387 275.869,310.949 276.800 C 310.794 277.130,309.201 279.920,307.409 283.000 C 305.618 286.080,304.025 288.870,303.871 289.200 C 303.717 289.530,303.239 290.340,302.808 291.000 C 302.378 291.660,301.753 292.740,301.421 293.400 C 301.088 294.060,300.642 294.870,300.428 295.200 C 300.215 295.530,298.222 298.950,296.000 302.800 C 293.778 306.650,291.790 310.070,291.583 310.400 C 291.376 310.730,290.663 311.990,290.000 313.200 C 289.337 314.410,288.618 315.670,288.404 316.000 C 288.190 316.330,286.456 319.300,284.552 322.600 C 279.710 330.988,277.902 332.669,272.489 333.816 C 268.242 334.716,134.503 334.676,130.133 333.774 C 124.813 332.675,120.175 328.071,117.062 320.800 C 116.921 320.470,116.628 319.930,116.411 319.600 C 115.063 317.549,106.836 303.144,106.615 302.448 C 106.467 301.981,106.196 301.600,106.012 301.600 C 105.829 301.600,105.480 301.105,105.238 300.500 C 104.996 299.895,104.444 298.860,104.012 298.200 C 103.579 297.540,102.953 296.460,102.621 295.800 C 102.288 295.140,101.836 294.330,101.615 294.000 C 101.145 293.296,94.972 282.619,93.521 280.000 C 92.469 278.101,90.221 274.213,89.590 273.200 C 89.385 272.870,87.140 269.000,84.603 264.600 C 82.065 260.200,79.811 256.330,79.593 256.000 C 79.376 255.670,79.012 254.967,78.785 254.437 C 78.558 253.908,77.838 252.684,77.186 251.717 C 76.534 250.751,76.000 249.867,76.000 249.754 C 76.000 249.574,71.005 240.820,69.978 239.200 C 69.769 238.870,69.416 238.240,69.193 237.800 C 68.970 237.360,68.430 236.460,67.993 235.800 C 67.556 235.140,66.923 234.060,66.587 233.400 C 66.251 232.740,65.603 231.570,65.145 230.800 C 64.688 230.030,62.706 226.610,60.740 223.200 C 58.774 219.790,57.003 216.730,56.804 216.400 C 56.606 216.070,55.962 214.908,55.375 213.818 C 54.787 212.728,53.841 211.108,53.272 210.218 C 50.560 205.979,49.821 203.044,50.459 199.047 C 50.852 196.585,51.281 195.714,56.596 186.600 C 58.392 183.520,59.984 180.730,60.135 180.400 C 60.286 180.070,60.767 179.260,61.205 178.600 C 61.643 177.940,62.277 176.860,62.614 176.200 C 62.950 175.540,63.578 174.460,64.008 173.800 C 64.439 173.140,64.913 172.330,65.062 172.000 C 65.211 171.670,67.700 167.350,70.592 162.400 C 73.485 157.450,75.973 153.130,76.123 152.800 C 76.273 152.470,76.568 151.930,76.780 151.600 C 76.993 151.270,78.774 148.210,80.740 144.800 C 82.706 141.390,84.695 137.970,85.159 137.200 C 85.624 136.430,86.279 135.260,86.615 134.600 C 86.951 133.940,87.577 132.860,88.007 132.200 C 88.437 131.540,88.970 130.640,89.193 130.200 C 89.416 129.760,89.770 129.130,89.981 128.800 C 90.715 127.649,98.670 113.795,98.938 113.200 C 99.087 112.870,99.565 112.060,100.000 111.400 C 100.435 110.740,100.915 109.930,101.066 109.600 C 101.217 109.270,103.709 104.950,106.603 100.000 C 109.497 95.050,112.345 90.145,112.932 89.100 C 113.520 88.055,114.450 86.401,114.999 85.424 C 122.447 72.189,124.394 70.021,129.786 68.955 C 133.133 68.294,268.496 68.190,272.367 68.846 "
       stroke="none"
       fill="#887878"
       fill-rule="evenodd" />
    <path
       id="path4"
       d="M129.786 68.955 C 124.394 70.021,122.447 72.189,114.999 85.424 C 114.450 86.401,113.520 88.055,112.932 89.100 C 112.345 90.145,109.497 95.050,106.603 100.000 C 103.709 104.950,101.217 109.270,101.066 109.600 C 100.915 109.930,100.435 110.740,100.000 111.400 C 99.565 112.060,99.087 112.870,98.938 113.200 C 98.670 113.795,90.715 127.649,89.981 128.800 C 89.770 129.130,89.416 129.760,89.193 130.200 C 88.970 130.640,88.437 131.540,88.007 132.200 C 87.577 132.860,86.951 133.940,86.615 134.600 C 86.279 135.260,85.624 136.430,85.159 137.200 C 84.695 137.970,82.706 141.390,80.740 144.800 C 78.774 148.210,76.993 151.270,76.780 151.600 C 76.568 151.930,76.273 152.470,76.123 152.800 C 75.973 153.130,73.485 157.450,70.592 162.400 C 67.700 167.350,65.211 171.670,65.062 172.000 C 64.913 172.330,64.439 173.140,64.008 173.800 C 63.578 174.460,62.950 175.540,62.614 176.200 C 62.277 176.860,61.643 177.940,61.205 178.600 C 60.767 179.260,60.286 180.070,60.135 180.400 C 59.984 180.730,58.392 183.520,56.596 186.600 C 51.281 195.714,50.852 196.585,50.459 199.047 C 49.821 203.044,50.560 205.979,53.272 210.218 C 53.841 211.108,54.787 212.728,55.375 213.818 C 55.962 214.908,56.606 216.070,56.804 216.400 C 57.003 216.730,58.774 219.790,60.740 223.200 C 62.706 226.610,64.688 230.030,65.145 230.800 C 65.603 231.570,66.251 232.740,66.587 233.400 C 66.923 234.060,67.556 235.140,67.993 235.800 C 68.430 236.460,68.970 237.360,69.193 237.800 C 69.416 238.240,69.769 238.870,69.978 239.200 C 71.005 240.820,76.000 249.574,76.000 249.754 C 76.000 249.867,76.534 250.751,77.186 251.717 C 77.838 252.684,78.558 253.908,78.785 254.437 C 79.012 254.967,79.376 255.670,79.593 256.000 C 79.811 256.330,82.065 260.200,84.603 264.600 C 87.140 269.000,89.385 272.870,89.590 273.200 C 90.221 274.213,92.469 278.101,93.521 280.000 C 94.972 282.619,101.145 293.296,101.615 294.000 C 101.836 294.330,102.288 295.140,102.621 295.800 C 102.953 296.460,103.579 297.540,104.012 298.200 C 104.444 298.860,104.996 299.895,105.238 300.500 C 105.480 301.105,105.829 301.600,106.012 301.600 C 106.196 301.600,106.467 301.981,106.615 302.448 C 106.836 303.144,115.063 317.549,116.411 319.600 C 116.628 319.930,116.921 320.470,117.062 320.800 C 120.175 328.071,124.813 332.675,130.133 333.774 C 134.503 334.676,268.242 334.716,272.489 333.816 C 277.902 332.669,279.710 330.988,284.552 322.600 C 286.456 319.300,288.190 316.330,288.404 316.000 C 288.618 315.670,289.337 314.410,290.000 313.200 C 290.663 311.990,291.376 310.730,291.583 310.400 C 291.790 310.070,293.778 306.650,296.000 302.800 C 298.222 298.950,300.215 295.530,300.428 295.200 C 300.642 294.870,301.088 294.060,301.421 293.400 C 301.753 292.740,302.378 291.660,302.808 291.000 C 303.239 290.340,303.717 289.530,303.871 289.200 C 304.025 288.870,305.618 286.080,307.409 283.000 C 309.201 279.920,310.794 277.130,310.949 276.800 C 311.387 275.869,312.186 274.541,312.669 273.943 C 312.910 273.644,313.590 272.500,314.181 271.400 C 314.772 270.300,315.601 268.860,316.022 268.200 C 316.443 267.540,316.952 266.640,317.153 266.200 C 317.353 265.760,319.202 262.520,321.261 259.000 C 323.321 255.480,325.231 252.150,325.507 251.600 C 325.783 251.050,326.355 250.060,326.778 249.400 C 327.201 248.740,327.915 247.480,328.364 246.600 C 328.813 245.720,329.815 244.039,330.590 242.865 C 331.366 241.691,332.000 240.645,332.000 240.540 C 332.000 240.436,333.185 238.354,334.633 235.915 C 336.081 233.475,337.434 231.102,337.639 230.640 C 337.844 230.178,338.367 229.260,338.800 228.600 C 339.233 227.940,339.770 227.040,339.993 226.600 C 340.216 226.160,340.569 225.530,340.779 225.200 C 341.111 224.677,349.660 209.870,351.518 206.600 C 352.883 204.198,352.472 197.915,350.746 194.800 C 349.015 191.677,344.149 183.242,343.592 182.400 C 343.373 182.070,343.078 181.530,342.935 181.200 C 342.792 180.870,341.173 178.044,339.338 174.920 C 337.502 171.796,336.000 169.150,336.000 169.040 C 336.000 168.930,335.480 168.066,334.844 167.120 C 333.739 165.476,332.218 162.861,330.354 159.400 C 329.880 158.520,327.656 154.650,325.412 150.800 C 323.168 146.950,321.210 143.530,321.062 143.200 C 320.913 142.870,320.436 142.060,320.002 141.400 C 319.567 140.740,319.030 139.840,318.807 139.400 C 318.584 138.960,318.231 138.330,318.021 138.000 C 317.245 136.778,308.128 120.979,307.864 120.400 C 307.714 120.070,307.241 119.260,306.814 118.600 C 306.386 117.940,305.605 116.590,305.078 115.600 C 304.551 114.610,302.324 110.740,300.128 107.000 C 297.933 103.260,296.009 99.930,295.853 99.600 C 295.696 99.270,295.348 98.640,295.079 98.200 C 294.634 97.472,292.926 94.632,291.717 92.608 C 291.452 92.164,291.065 91.440,290.859 91.000 C 290.652 90.560,288.754 87.256,286.641 83.658 C 284.529 80.060,282.800 77.054,282.800 76.978 C 282.800 74.476,276.468 69.541,272.367 68.846 C 268.496 68.190,133.133 68.294,129.786 68.955 M275.800 70.363 C 278.705 72.111,281.848 75.629,282.588 77.962 C 282.734 78.423,283.022 78.800,283.227 78.800 C 283.432 78.800,283.600 78.994,283.600 79.230 C 283.600 79.766,286.872 85.351,287.292 85.533 C 287.462 85.607,287.600 86.001,287.600 86.410 C 287.600 86.818,287.798 87.275,288.041 87.425 C 288.283 87.575,288.739 88.261,289.054 88.949 C 289.368 89.637,289.977 90.740,290.407 91.400 C 290.837 92.060,291.382 93.046,291.619 93.592 C 291.856 94.137,292.177 94.677,292.333 94.792 C 292.489 94.906,292.840 95.450,293.112 96.000 C 293.385 96.550,293.964 97.540,294.398 98.200 C 294.833 98.860,295.382 99.846,295.619 100.392 C 295.856 100.937,296.177 101.477,296.333 101.592 C 296.489 101.706,296.838 102.250,297.109 102.800 C 298.108 104.826,300.101 108.206,300.414 108.404 C 300.591 108.516,300.857 109.088,301.004 109.675 C 301.152 110.262,301.526 110.839,301.836 110.959 C 302.146 111.078,302.400 111.530,302.400 111.964 C 302.400 112.398,302.591 112.871,302.825 113.015 C 303.058 113.160,303.428 113.665,303.645 114.139 C 303.863 114.612,304.478 115.720,305.011 116.600 C 305.545 117.480,306.170 118.560,306.400 119.000 C 306.630 119.440,307.244 120.520,307.763 121.400 C 308.282 122.280,309.207 123.945,309.819 125.100 C 310.430 126.255,311.081 127.200,311.265 127.200 C 311.449 127.200,311.600 127.538,311.600 127.951 C 311.600 128.364,311.866 128.923,312.190 129.192 C 312.515 129.461,313.241 130.608,313.805 131.741 C 314.368 132.873,315.182 134.340,315.615 135.000 C 316.048 135.660,316.677 136.740,317.014 137.400 C 317.350 138.060,317.977 139.140,318.407 139.800 C 318.837 140.460,319.382 141.446,319.619 141.992 C 319.856 142.537,320.177 143.077,320.333 143.192 C 320.489 143.306,320.846 143.850,321.128 144.400 C 322.279 146.652,322.937 147.811,323.170 148.000 C 323.305 148.110,323.634 148.650,323.901 149.200 C 324.168 149.750,325.020 151.280,325.795 152.600 C 326.570 153.920,327.401 155.495,327.641 156.100 C 327.882 156.705,328.229 157.200,328.412 157.200 C 328.596 157.200,328.871 157.605,329.023 158.100 C 329.176 158.595,329.800 159.748,330.411 160.662 C 331.022 161.577,331.642 162.702,331.788 163.162 C 331.934 163.623,332.204 164.000,332.388 164.000 C 332.571 164.000,332.920 164.495,333.162 165.100 C 333.404 165.705,333.948 166.740,334.370 167.400 C 334.792 168.060,335.644 169.590,336.264 170.800 C 336.884 172.010,337.619 173.144,337.896 173.320 C 338.173 173.496,338.400 173.892,338.400 174.200 C 338.400 174.508,338.934 175.551,339.586 176.517 C 340.238 177.484,340.961 178.708,341.192 179.237 C 341.423 179.767,341.967 180.740,342.402 181.400 C 342.836 182.060,343.312 182.870,343.459 183.200 C 344.050 184.527,347.005 189.409,347.292 189.533 C 347.462 189.607,347.600 189.952,347.600 190.302 C 347.600 190.651,347.855 191.221,348.167 191.569 C 351.613 195.410,352.834 202.949,350.633 206.800 C 350.067 207.790,349.405 209.095,349.163 209.700 C 348.920 210.305,348.577 210.800,348.400 210.800 C 348.223 210.800,347.882 211.295,347.641 211.900 C 347.401 212.505,346.570 214.080,345.795 215.400 C 345.020 216.720,344.168 218.250,343.901 218.800 C 343.634 219.350,343.289 219.894,343.133 220.008 C 342.977 220.123,342.650 220.663,342.404 221.208 C 342.159 221.754,341.522 222.920,340.989 223.800 C 340.455 224.680,339.832 225.760,339.604 226.200 C 339.375 226.640,338.837 227.540,338.407 228.200 C 337.977 228.860,337.368 229.963,337.054 230.651 C 336.739 231.339,336.283 232.025,336.041 232.175 C 335.798 232.325,335.600 232.708,335.600 233.027 C 335.600 233.346,335.060 234.352,334.400 235.263 C 333.740 236.175,333.200 237.135,333.200 237.398 C 333.200 237.661,332.840 238.202,332.400 238.600 C 331.960 238.998,331.600 239.597,331.600 239.930 C 331.600 240.264,331.333 240.832,331.007 241.192 C 330.424 241.837,328.989 244.246,327.787 246.600 C 327.450 247.260,326.826 248.340,326.400 249.000 C 325.974 249.660,325.350 250.740,325.014 251.400 C 324.677 252.060,324.043 253.140,323.605 253.800 C 323.167 254.460,322.704 255.270,322.576 255.600 C 322.447 255.930,322.174 256.470,321.968 256.800 C 321.763 257.130,321.374 257.850,321.105 258.400 C 320.836 258.950,320.498 259.490,320.354 259.600 C 320.082 259.807,317.974 263.446,317.109 265.200 C 316.838 265.750,316.489 266.294,316.333 266.408 C 316.177 266.523,315.856 267.063,315.619 267.608 C 315.382 268.154,314.837 269.140,314.407 269.800 C 313.977 270.460,313.343 271.540,312.998 272.200 C 312.319 273.499,311.596 274.722,310.393 276.600 C 309.971 277.260,309.368 278.363,309.054 279.051 C 308.739 279.739,308.283 280.425,308.041 280.575 C 307.798 280.725,307.600 281.182,307.600 281.590 C 307.600 281.999,307.462 282.393,307.292 282.467 C 307.005 282.591,304.050 287.473,303.459 288.800 C 303.312 289.130,302.833 289.940,302.395 290.600 C 301.957 291.260,301.318 292.340,300.975 293.000 C 299.889 295.091,299.306 296.054,298.846 296.514 C 298.601 296.759,298.400 297.275,298.400 297.660 C 298.400 298.045,298.171 298.504,297.892 298.680 C 297.612 298.856,297.153 299.450,296.871 300.000 C 295.769 302.153,294.110 305.080,293.057 306.730 C 292.449 307.682,291.836 308.762,291.695 309.130 C 291.553 309.499,290.957 310.520,290.369 311.400 C 289.781 312.280,289.176 313.405,289.023 313.900 C 288.871 314.395,288.596 314.800,288.412 314.800 C 288.229 314.800,287.881 315.295,287.641 315.900 C 287.084 317.302,285.049 320.898,283.556 323.120 C 282.920 324.066,282.400 325.003,282.400 325.202 C 282.400 326.263,277.682 331.600,276.745 331.600 C 276.586 331.600,276.183 331.874,275.849 332.208 C 274.583 333.474,269.054 333.575,201.400 333.575 C 133.656 333.575,128.209 333.475,126.803 332.203 C 126.437 331.871,125.964 331.600,125.753 331.600 C 125.229 331.600,121.771 327.968,121.469 327.100 C 121.335 326.715,121.039 326.400,120.813 326.400 C 120.586 326.400,120.400 326.053,120.400 325.629 C 120.400 325.204,120.131 324.588,119.802 324.259 C 119.472 323.930,119.020 323.242,118.796 322.730 C 118.571 322.219,118.033 321.260,117.600 320.600 C 117.167 319.940,116.618 318.954,116.381 318.408 C 116.144 317.863,115.823 317.323,115.667 317.208 C 115.511 317.094,115.160 316.550,114.887 316.000 C 114.614 315.450,113.973 314.280,113.462 313.400 C 111.252 309.587,109.978 307.346,109.597 306.600 C 109.372 306.160,108.831 305.260,108.395 304.600 C 107.959 303.940,107.409 302.919,107.173 302.332 C 106.937 301.745,106.487 301.165,106.172 301.045 C 105.857 300.924,105.600 300.470,105.600 300.036 C 105.600 299.602,105.409 299.129,105.175 298.985 C 104.942 298.840,104.577 298.335,104.366 297.861 C 104.154 297.388,103.545 296.280,103.011 295.400 C 102.478 294.520,101.841 293.354,101.596 292.808 C 101.350 292.263,101.026 291.723,100.875 291.608 C 100.543 291.357,99.624 289.727,98.220 286.900 C 97.646 285.745,97.002 284.800,96.788 284.800 C 96.575 284.800,96.400 284.451,96.400 284.024 C 96.400 283.597,96.202 283.125,95.959 282.975 C 95.717 282.825,95.262 282.139,94.950 281.451 C 94.182 279.764,91.972 275.849,91.646 275.600 C 91.502 275.490,91.162 274.950,90.891 274.400 C 89.995 272.584,87.930 269.028,86.756 267.280 C 86.120 266.334,85.600 265.405,85.600 265.215 C 85.600 265.025,84.970 263.913,84.200 262.744 C 83.430 261.575,82.800 260.389,82.800 260.109 C 82.800 259.829,82.638 259.600,82.439 259.600 C 82.241 259.600,81.873 259.105,81.623 258.500 C 80.939 256.846,79.929 255.072,79.332 254.475 C 79.039 254.182,78.800 253.772,78.800 253.563 C 78.800 253.355,78.313 252.423,77.718 251.492 C 76.789 250.040,75.155 247.141,73.609 244.200 C 73.377 243.760,72.830 242.860,72.393 242.200 C 71.956 241.540,71.326 240.415,70.994 239.700 C 70.661 238.985,70.212 238.400,69.995 238.400 C 69.778 238.400,69.600 238.051,69.600 237.624 C 69.600 237.197,69.409 236.729,69.175 236.585 C 68.942 236.440,68.577 235.935,68.366 235.461 C 68.154 234.988,67.542 233.880,67.006 233.000 C 66.470 232.120,65.827 230.905,65.577 230.300 C 65.326 229.695,64.959 229.200,64.761 229.200 C 64.562 229.200,64.400 229.006,64.400 228.770 C 64.400 228.234,61.128 222.649,60.708 222.467 C 60.538 222.393,60.400 221.999,60.400 221.590 C 60.400 221.182,60.202 220.725,59.959 220.575 C 59.717 220.425,59.261 219.739,58.946 219.051 C 58.632 218.363,58.023 217.260,57.593 216.600 C 57.163 215.940,56.618 214.954,56.381 214.408 C 56.144 213.863,55.823 213.323,55.667 213.208 C 55.511 213.094,55.160 212.550,54.888 212.000 C 54.615 211.450,54.042 210.460,53.615 209.800 C 51.326 206.264,51.003 205.164,51.002 200.885 C 51.001 198.139,51.158 196.673,51.475 196.477 C 51.736 196.316,52.144 195.737,52.381 195.192 C 52.618 194.646,53.163 193.660,53.593 193.000 C 54.023 192.340,54.632 191.237,54.946 190.549 C 55.261 189.861,55.717 189.175,55.959 189.025 C 56.202 188.875,56.400 188.403,56.400 187.976 C 56.400 187.549,56.551 187.200,56.735 187.200 C 56.919 187.200,57.570 186.255,58.181 185.100 C 58.793 183.945,59.718 182.280,60.237 181.400 C 60.756 180.520,61.370 179.440,61.600 179.000 C 61.830 178.560,62.455 177.480,62.989 176.600 C 63.522 175.720,64.137 174.612,64.355 174.139 C 64.572 173.665,64.942 173.160,65.175 173.015 C 65.409 172.871,65.600 172.398,65.600 171.964 C 65.600 171.530,65.854 171.078,66.164 170.959 C 66.474 170.839,66.848 170.262,66.996 169.675 C 67.143 169.088,67.384 168.516,67.532 168.404 C 68.079 167.988,69.600 165.617,69.600 165.179 C 69.600 164.930,69.960 164.269,70.400 163.709 C 70.840 163.150,71.200 162.461,71.200 162.179 C 71.200 161.897,71.361 161.607,71.557 161.533 C 71.887 161.410,73.739 158.337,74.891 156.000 C 75.162 155.450,75.511 154.906,75.667 154.792 C 75.823 154.677,76.144 154.137,76.381 153.592 C 76.618 153.046,77.163 152.060,77.593 151.400 C 78.023 150.740,78.632 149.637,78.946 148.949 C 79.261 148.261,79.717 147.575,79.959 147.425 C 80.202 147.275,80.400 146.818,80.400 146.410 C 80.400 146.001,80.538 145.607,80.708 145.533 C 81.128 145.351,84.400 139.766,84.400 139.230 C 84.400 138.994,84.568 138.800,84.773 138.800 C 84.978 138.800,85.262 138.435,85.404 137.988 C 85.545 137.542,86.277 136.241,87.031 135.098 C 87.784 133.954,88.400 132.811,88.400 132.558 C 88.400 132.305,88.670 131.874,89.000 131.600 C 89.330 131.326,89.600 130.764,89.600 130.351 C 89.600 129.938,89.789 129.600,90.020 129.600 C 90.252 129.600,90.707 129.015,91.033 128.300 C 91.359 127.585,91.977 126.460,92.407 125.800 C 92.837 125.140,93.377 124.240,93.609 123.800 C 95.155 120.859,96.789 117.960,97.718 116.508 C 98.313 115.577,98.800 114.645,98.800 114.437 C 98.800 114.228,99.039 113.818,99.332 113.525 C 99.929 112.928,100.939 111.154,101.623 109.500 C 101.873 108.895,102.241 108.400,102.439 108.400 C 102.638 108.400,102.800 108.171,102.800 107.891 C 102.800 107.611,103.430 106.425,104.200 105.256 C 104.970 104.087,105.600 102.975,105.600 102.785 C 105.600 102.595,106.120 101.666,106.756 100.720 C 107.930 98.972,109.995 95.416,110.891 93.600 C 111.162 93.050,111.502 92.510,111.646 92.400 C 111.972 92.152,114.202 88.245,114.998 86.527 C 115.322 85.827,115.771 85.142,115.994 85.004 C 116.217 84.866,116.400 84.403,116.400 83.976 C 116.400 83.549,116.575 83.200,116.788 83.200 C 117.002 83.200,117.636 82.228,118.198 81.041 C 118.760 79.853,119.485 78.661,119.810 78.392 C 120.134 78.123,120.400 77.641,120.400 77.322 C 120.400 77.004,120.625 76.496,120.900 76.195 C 121.175 75.894,121.850 75.005,122.400 74.220 C 123.990 71.950,127.412 69.850,130.000 69.557 C 131.210 69.419,164.150 69.328,203.200 69.354 L 274.200 69.400 275.800 70.363 "
       stroke="none"
       fill="#aca4a4"
       fill-rule="evenodd" />
  </g>
  <path
     style="fill:#585661;stroke-width:0.42568672"
     d="m 144.4748,142.89997 c -9.30951,9.30952 -10.38771,23.32496 -2.40804,31.30463 l 33.71266,-33.71267 c -7.97966,-7.97967 -21.99511,-6.90147 -31.30462,2.40804 z"
     id="path3798"
     inkscape:connector-curvature="0" />
  <path
     style="fill:#ffd750;stroke-width:0.42568672"
     d="m 246.00743,185.73644 c 0,0 34.50913,37.7323 6.77263,65.4688 -28.85262,28.85262 -65.4688,-6.77264 -65.4688,-6.77264 0,0 -0.3603,-12.87793 -3.16026,-20.80643 -2.42851,-6.87619 -11.23746,-14.64906 -13.8544,-22.06404 -2.86919,-8.13078 4.159,-16.5153 10.24203,-22.59833 6.27056,-6.27055 14.50186,-9.66109 23.39328,-10.30674 6.403,-0.46536 12.61607,12.31445 19.21833,14.64604 7.9285,2.79996 22.85719,2.43334 22.85719,2.43334 z"
     id="path3800"
     inkscape:connector-curvature="0" />
  <g
     id="g3806"
     transform="matrix(0.30100598,-0.30100598,0.30100598,0.30100598,44.484225,197.13763)">
    <path
       style="fill:#6b676e"
       d="m 333.456,293.973 c -5.435,-6.607 -10.646,-13.795 -13.694,-20.172 -2.916,-6.1 -2.79,-15.021 -2.423,-24.102 -16.198,2.637 -36.269,4.436 -61.154,4.436 -25.312,0 -45.647,-1.859 -61.988,-4.57 -1.36,9.872 -2.835,19.404 -6.196,26.436 -2.721,5.691 -6.693,11.806 -10.841,17.495 17.869,4.941 43.193,9.098 79.025,9.098 34.67,-10e-4 59.509,-3.893 77.271,-8.621 z"
       id="path3802"
       inkscape:connector-curvature="0" />
    <path
       style="fill:#6b676e"
       d="m 351.614,328 c -16.889,7.327 -45.882,15.902 -95.43,15.902 -49.542,0 -78.533,-8.573 -95.424,-15.899 2.192,20.579 5.612,36.143 15.239,51.997 16.705,5.65 44.248,10 80.184,10 35.943,0 64.111,-4.349 80.816,-10 1.062,-1.749 2.028,-3.495 2.932,-5.244 4.434,-10.566 7.457,-21.082 9.507,-30.249 0.87,-5.18 1.551,-10.634 2.176,-16.507 z"
       id="path3804"
       inkscape:connector-curvature="0" />
  </g>
  <path
     style="fill:#585661;stroke-width:0.42568672"
     d="m 197.39527,154.88362 c 8.64459,8.6446 11.51257,19.79204 -4.8161,36.12072 -16.32868,16.32867 -27.47613,13.46069 -36.12071,4.8161 -8.6449,-8.6449 -11.51259,-19.79205 4.81608,-36.12072 16.32868,-16.32867 27.47583,-13.46099 36.12073,-4.8161 z"
     id="path3808"
     inkscape:connector-curvature="0" />
  <path
     style="fill:#6b676e;stroke-width:0.42568672"
     d="m 191.92057,148.31809 c 6.64953,6.64951 7.79003,16.29043 -8.97389,33.05436 -16.76393,16.76393 -26.40485,15.62342 -33.05437,8.97389 -6.64982,-6.64982 -7.79003,-16.29044 8.97388,-33.05437 16.76394,-16.76392 26.40455,-15.62371 33.05438,-8.97388 z"
     id="path3810"
     inkscape:connector-curvature="0" />
  <g
     id="g3816"
     style="fill:#87e7ff;fill-opacity:1"
     transform="matrix(0.30100598,-0.30100598,0.30100598,0.30100598,44.484225,197.13763)">
    <path
       style="fill:#87e7ff;fill-opacity:1"
       d="m 464.188,259.811 c -127,-117.999 -152.375,-125.499 -152.375,-125.499 18.667,22 11.498,39.707 8.375,53.5 -16,70.665 14,113.999 32,127.999 38.517,29.957 152,67.001 152,40.001 0,-42.001 -16.69,-74.342 -40,-96.001 z"
       id="path3812"
       inkscape:connector-curvature="0" />
    <path
       style="fill:#87e7ff;fill-opacity:1"
       d="m 47.813,259.811 c 127,-117.999 152.375,-125.499 152.375,-125.499 -18.667,22 -11.498,39.707 -8.375,53.5 16,70.665 -14,113.999 -32,127.999 -38.517,29.957 -152,67.001 -152,40.001 0,-42.001 16.689,-74.342 40,-96.001 z"
       id="path3814"
       inkscape:connector-curvature="0" />
  </g>
  <path
     d="m 268.59221,132.61581 c -0.69804,-0.30493 -1.49058,-0.37325 -2.24821,-0.16827 -1.30005,-0.0774 -2.60973,-0.1204 -3.93174,-0.1204 -19.9266,0 -73.08215,5.92892 -83.10866,7.06792 -4.72188,-4.17465 -16.17419,-6.78104 -22.098,-7.11576 -3.65487,-4.06865 -5.08737,-6.04067 -7.58707,-9.99102 -2.15678,-2.92369 -2.90483,-5.10207 -4.10791,-8.27287 -0.0864,-1.84569 -0.14146,-2.54269 -0.30499,-3.90841 -1.05853,-0.76355 -1.35225,-1.38974 -3.67338,-0.72907 -1.26738,1.89003 0.13093,4.90248 0.13093,4.90248 1.72485,2.5757 9.41832,13.87483 12.09525,19.357 -4.30469,1.2266 -8.36496,3.5278 -11.74827,6.91111 -3.3833,3.38331 -5.68449,7.44357 -6.91229,11.74825 -3.02312,-2.32597 -15.68366,-13.39993 -18.5667,-16.26635 -1.7369,-1.25853 -4.1546,-2.6716 -6.04405,-1.75549 -1.89004,1.44301 -1.32716,2.27275 -0.41782,3.93243 l 4.12041,1.8689 c 3.20861,1.53744 6.12855,3.61915 8.6809,5.44624 2.3697,2.14845 8.38112,7.26909 11.92289,9.8702 0.33472,5.9238 1.88735,17.72737 6.06201,22.44925 -1.13901,10.02651 -7.06822,63.18236 -7.06793,83.10865 0,1.32203 0.0431,2.6317 0.12041,3.93175 -0.20499,0.75763 -0.13666,1.55018 0.16826,2.24821 1.34399,14.19694 7.34816,26.94726 17.56611,37.16521 1.57095,1.57095 5.97256,4.47656 12.90202,-2.4523 l 0.001,-0.001 c 9.13704,-9.13704 21.21099,-33.9008 25.36698,-50.89228 9.06209,8.18194 20.35162,13.17503 32.09747,14.13764 13.00437,1.06466 24.78725,-2.96973 33.17809,-11.36056 8.39085,-8.39084 12.42522,-20.17373 11.36026,-33.17779 -0.96201,-11.74585 -5.9557,-23.03538 -14.13764,-32.09747 16.99118,-4.15629 41.75645,-16.23114 50.89379,-25.36848 6.92946,-6.92946 4.02385,-11.33107 2.45259,-12.90232 -10.21795,-10.21774 -22.96826,-16.2219 -37.16521,-17.56469 z m -76.55003,12.22986 c 16.57128,-1.78105 44.58018,-4.62164 61.96268,-5.46446 -7.2702,4.23908 -16.73684,9.90039 -24.65872,15.10659 -11.68023,-0.50268 -24.81884,-0.51682 -30.04942,-0.49847 -1.68353,-2.7828 -3.81676,-6.27717 -7.25454,-9.14366 z m -45.21592,0.51894 c 6.82652,-6.82651 17.31898,-7.79816 25.1957,-2.92548 -7.11788,4.1566 -15.12494,12.11911 -15.5635,12.55767 -0.43858,0.43857 -8.40138,8.44593 -12.55797,15.56322 -4.87269,-7.87673 -3.90074,-18.36889 2.92577,-25.19541 z m 1.21607,32.88611 c 0.0858,-0.2387 0.15562,-0.48492 0.18692,-0.74741 0.2986,-2.49594 5.72965,-10.37476 13.04529,-17.69041 7.31536,-7.31535 15.19479,-12.7464 17.69103,-13.0453 0.26218,-0.0316 0.5087,-0.10114 0.7474,-0.18692 7.9315,1.30997 11.04722,6.45447 13.81647,11.03337 0.33894,0.56047 0.66523,1.09988 0.9858,1.60767 4.69328,7.44027 9.86638,13.1961 15.12977,17.60524 -1.96016,2.90832 -6.07943,8.12024 -14.6578,16.6986 -8.57837,8.57837 -13.79028,12.69764 -16.6986,14.65719 -4.40913,-5.26339 -10.16497,-10.43648 -17.60523,-15.12976 -0.5081,-0.32027 -1.04691,-0.64656 -1.60738,-0.98549 -4.5786,-2.76896 -9.724,-5.88497 -11.03367,-13.81678 z m 34.33424,35.38476 c 4.43593,-3.03805 10.38561,-8.25268 17.42674,-15.29381 7.04113,-7.04114 12.25546,-12.99052 15.29381,-17.42675 3.49438,2.32949 6.96919,4.11806 10.31367,5.46206 -1.20161,2.91615 -4.5789,10.20049 -15.97588,21.59747 -11.39459,11.39459 -18.67833,14.77247 -21.59538,15.975 -1.34459,-3.34448 -3.13347,-6.8196 -5.46296,-10.31397 z m -36.06924,-23.05496 c 2.86648,3.4378 6.36086,5.57102 9.14396,7.25425 -0.0183,5.23057 -0.004,18.36889 0.49816,30.04913 -5.2062,7.92188 -10.86782,17.38881 -15.10658,24.65871 0.84281,-17.38189 3.68341,-45.3908 5.46446,-61.96209 z m 13.42125,106.44656 c -1.92133,1.92132 -2.99321,2.31835 -3.32371,2.39902 -9.23335,-9.25624 -14.45701,-20.39768 -15.57494,-33.17779 2.09559,-3.71682 8.86461,-15.62401 15.86361,-26.869 0.34676,3.60546 0.78833,6.51408 1.35031,8.20001 1.40901,4.22702 8.91219,18.15849 16.19412,26.25012 -4.61653,9.75591 -10.01357,18.70241 -14.50939,23.19764 z m 24.6554,-53.35452 c -0.77178,6.17604 -3.48594,14.70083 -7.06822,23.25332 -5.99303,-7.52394 -11.81629,-18.51789 -12.81021,-21.49965 -1.63356,-4.90129 -2.2136,-26.45602 -2.24822,-43.03032 19.53981,14.65207 23.22412,32.49872 22.12665,41.27665 z m 65.98834,5.23811 c -8.35744,8.35743 -20.81697,11.10109 -33.11788,8.59011 5.91146,-2.84722 14.06691,-8.04318 23.86465,-17.84093 9.80016,-9.80015 14.99582,-17.95651 17.84274,-23.86887 2.51159,12.30151 -0.23148,24.76165 -8.58951,33.11969 z m 5.20559,-43.42132 c -1.08121,4.01121 -4.35705,14.43655 -19.27491,29.35441 -14.91244,14.91243 -25.33477,18.19129 -29.3499,19.27401 -3.46367,-1.59201 -6.81056,-3.6235 -9.9362,-6.08514 5.84734,-2.0944 16.65286,-7.24641 30.94071,-21.53426 14.29116,-14.29117 19.44198,-25.09788 21.53577,-30.94463 2.46072,3.12535 4.49251,6.47194 6.08453,9.93561 z m -11.53304,-15.2625 c -1.05774,3.66744 -4.27639,14.82785 -20.90366,31.45511 -16.62666,16.62668 -27.78768,19.84593 -31.45512,20.90366 -0.13245,0.0385 -0.25948,0.0861 -0.38349,0.13847 0.19476,-3.37458 -0.14117,-7.59708 -1.33586,-12.28707 2.91404,-1.17301 11.3103,-4.67251 24.28396,-17.64616 12.97606,-12.97607 16.47406,-21.37383 17.64708,-24.28546 4.68936,1.19408 8.91188,1.53061 12.28615,1.33616 -0.0527,0.12431 -0.10053,0.25223 -0.13906,0.38529 z m 1.08935,-7.30451 c -8.77765,1.09716 -26.62459,-2.58685 -41.27666,-22.12666 16.57369,0.034 38.12783,0.61406 43.03001,2.24792 2.98206,0.99422 13.97601,6.81749 21.49966,12.8102 -8.55309,3.58228 -17.07819,6.29675 -23.25301,7.06854 z m 53.35451,-24.65541 c -4.49613,4.49612 -13.44202,9.89256 -23.19883,14.50879 -8.09104,-7.28133 -22.0219,-14.78451 -26.24923,-16.19382 -1.68594,-0.56198 -4.59456,-1.00356 -8.20001,-1.35032 11.24528,-6.99868 23.15218,-13.768 26.869,-15.86361 12.78042,1.11824 23.92185,6.34189 33.17808,15.57526 -0.0807,0.3305 -0.47769,1.40238 -2.39901,3.3237 z"
     id="path3818"
     inkscape:connector-curvature="0"
     sodipodi:nodetypes="ccsccccccccscccccccccccscsccsccsccccccccscscsccscccccscccccsccscccccccccccccccccccscscscsccscccscccsccccccccccccccc"
     style="stroke-width:0.42568672" />
</svg>
